/* XPM */
const char * addtolist_18_xpm[] = {
"18 18 163 2",
"  	c None",
". 	c #3E98E5",
"+ 	c #459AE5",
"@ 	c #4093E1",
"# 	c #3C8CDE",
"$ 	c #3684DA",
"% 	c #317DD7",
"& 	c #2C76D3",
"* 	c #276ECF",
"= 	c #2166CC",
"- 	c #1C5FC9",
"; 	c #1758C5",
"> 	c #1250C2",
", 	c #0C49BE",
"' 	c #0842BB",
") 	c #053DB7",
"! 	c #0234A7",
"~ 	c #6FBBF6",
"{ 	c #7CC3FC",
"] 	c #74BAFC",
"^ 	c #6AB0FC",
"/ 	c #5FA5FB",
"( 	c #559BFB",
"_ 	c #4B90FA",
": 	c #4086FA",
"< 	c #357AF9",
"[ 	c #2A6FF9",
"} 	c #1F64F9",
"| 	c #1459F8",
"1 	c #094DF8",
"2 	c #0448F7",
"3 	c #0347F7",
"4 	c #0238D2",
"5 	c #84C6FC",
"6 	c #89C7FF",
"7 	c #81BFFF",
"8 	c #78B6FF",
"9 	c #6FADFF",
"0 	c #65A4FF",
"a 	c #5C9AFF",
"b 	c #5290FF",
"c 	c #4785FF",
"d 	c #3D7CFF",
"e 	c #3271FF",
"f 	c #2867FF",
"g 	c #1D5DFF",
"h 	c #1A5AFF",
"i 	c #1A59FF",
"j 	c #1647DF",
"k 	c #00257A",
"l 	c #D1E8FC",
"m 	c #E6F3FF",
"n 	c #E4F1FF",
"o 	c #E2EFFF",
"p 	c #E1EDFF",
"q 	c #DFEBFF",
"r 	c #DDE9FF",
"s 	c #DBE7FF",
"t 	c #D8E5FF",
"u 	c #D6E3FF",
"v 	c #D4E1FF",
"w 	c #D1DEFE",
"x 	c #CDDAFD",
"y 	c #CAD8FC",
"z 	c #C9D6FB",
"A 	c #A9B7E5",
"B 	c #002578",
"C 	c #E6F1FC",
"D 	c #FFFFFF",
"E 	c #FDFDFE",
"F 	c #FBFBFD",
"G 	c #F9F9FB",
"H 	c #F7F7FA",
"I 	c #F4F4F8",
"J 	c #CCD2E5",
"K 	c #E6F1FB",
"L 	c #F2F2F7",
"M 	c #C9CFE3",
"N 	c #F5F5F9",
"O 	c #F0F0F6",
"P 	c #C7CCE1",
"Q 	c #FEFEFE",
"R 	c #F3F3F8",
"S 	c #EEEEF4",
"T 	c #C4C9DF",
"U 	c #E5F0FB",
"V 	c #FCFCFD",
"W 	c #EEEEF5",
"X 	c #ECECF3",
"Y 	c #C1C7DD",
"Z 	c #E5F0FA",
"` 	c #EBF7E9",
" .	c #AEDE98",
"..	c #ACDB90",
"+.	c #ABDA90",
"@.	c #A9D88F",
"#.	c #B7DFAE",
"$.	c #E9E9F2",
"%.	c #BEC4DB",
"&.	c #E5EFFA",
"*.	c #C3E8C2",
"=.	c #7CD371",
"-.	c #BFEAB4",
";.	c #BAE9AE",
">.	c #65C65F",
",.	c #EAEAF2",
"'.	c #E7E7F1",
").	c #BCC1DA",
"!.	c #BBE1BD",
"~.	c #6ADF6A",
"{.	c #9AFF9A",
"].	c #53C154",
"^.	c #E5E5EF",
"/.	c #BBC1D9",
"(.	c #F0F5F2",
"_.	c #B1D8B3",
":.	c #21DA21",
"<.	c #17FE17",
"[.	c #28FF28",
"}.	c #39B93A",
"|.	c #DFE5E7",
"1.	c #E4E6ED",
"2.	c #E3E3EE",
"3.	c #BAC0D9",
"4.	c #E4EFFA",
"5.	c #FAFAFC",
"6.	c #39A83A",
"7.	c #17B417",
"8.	c #01DE01",
"9.	c #00F100",
"0.	c #00F500",
"a.	c #02F702",
"b.	c #06C006",
"c.	c #1EB51F",
"d.	c #8CBE92",
"e.	c #E1E1ED",
"f.	c #B9BFD8",
"g.	c #96B9E4",
"h.	c #A3BFE4",
"i.	c #9FBAE1",
"j.	c #9CB6DE",
"k.	c #288158",
"l.	c #00B805",
"m.	c #00E100",
"n.	c #00E200",
"o.	c #00DC00",
"p.	c #039D14",
"q.	c #578199",
"r.	c #8294C6",
"s.	c #8193C6",
"t.	c #6F85C0",
"u.	c #006D04",
"v.	c #00AA00",
"w.	c #00CC00",
"x.	c #00CD00",
"y.	c #00C800",
"z.	c #009900",
"A.	c #006700",
"B.	c #009C00",
"C.	c #00B500",
"D.	c #008A00",
"E.	c #006200",
"F.	c #007400",
"  . + @ # $ % & * = - ; > , ' ) !   ",
"  ~ { ] ^ / ( _ : < [ } | 1 2 3 4   ",
"  5 6 7 8 9 0 a b c d e f g h i j k ",
"  l m n o p q r s t u v w x y z A B ",
"  C D D D D D D D D D E F G H I J B ",
"  K D D D D D D D D E F G H I L M B ",
"  K D D D D D D D E F G H N L O P B ",
"  K D D D D D D Q F G H N R O S T B ",
"  U D D D D D Q V G H N R O W X Y B ",
"  Z D D D D `  ...+.@.#.O W X $.%.B ",
"  &.D D D E *.=.-.-.;.>.W X ,.'.).B ",
"  &.D D Q V !.~.{.{.{.].X ,.'.^./.B ",
"  &.D Q V (._.:.<.<.[.}.|.1.^.2.3.B ",
"  4.Q V 5.6.7.8.9.0.a.b.c.d.2.e.f.B ",
"  g.h.i.j.k.l.m.n.n.n.o.p.q.r.s.t.B ",
"            u.v.w.x.y.z.            ",
"              A.B.C.D.              ",
"                E.F.                "};
