/* XPM */
const char * apply_18_xpm[] = {
"18 18 46 1",
" 	c None",
".	c #707070",
"+	c #717171",
"@	c #6D6D6D",
"#	c #6E6E6E",
"$	c #747474",
"%	c #7B7B7B",
"&	c #737373",
"*	c #757575",
"=	c #808080",
"-	c #8F8F8F",
";	c #7F7F7F",
">	c #828282",
",	c #8B8B8B",
"'	c #7E7E7E",
")	c #909090",
"!	c #969696",
"~	c #767676",
"{	c #939393",
"]	c #666666",
"^	c #656565",
"/	c #878787",
"(	c #888888",
"_	c #868686",
":	c #7A7A7A",
"<	c #616161",
"[	c #6C6C6C",
"}	c #8D8D8D",
"|	c #919191",
"1	c #686868",
"2	c #787878",
"3	c #5F5F5F",
"4	c #6F6F6F",
"5	c #8A8A8A",
"6	c #848484",
"7	c #5B5B5B",
"8	c #626262",
"9	c #7D7D7D",
"0	c #858585",
"a	c #696969",
"b	c #565656",
"c	c #797979",
"d	c #676767",
"e	c #5C5C5C",
"f	c #585858",
"g	c #595959",
"                  ",
"                  ",
"                  ",
"               .+ ",
"@#           $$@  ",
".%&        *=-;   ",
" >,#     @')!~    ",
" ~{=]  ^$/{(+     ",
" @_):<[>}|=1      ",
"  2}}(}},&3       ",
"  4_5556+7        ",
"  8900'a7         ",
"  b&=c8           ",
"   d$e            ",
"   fg             ",
"                  ",
"                  ",
"                  "};
