/* XPM */
const char* const b_frame_18_xpm[] = { 
"18 18 16 1",
". c None",
"d c #faf515",
"j c #faf623",
"g c #fbf631",
"l c #fbf740",
"a c #fbf74f",
"m c #fcf85d",
"e c #fcf96c",
"i c #fcf97b",
"h c #fcfa8a",
"b c #fdfb98",
"k c #fdfcb6",
"c c #fefcc4",
"# c #fefdd3",
"n c #fefee2",
"f c #fffef0",
"..................",
"..................",
"....#aaaaaab......",
"....cddddddde.....",
"....cda...bddf....",
"....cda....dd#....",
"....cda...#dg.....",
"....cdghhijj#.....",
"....cddddddgk.....",
"....cdlccchddk....",
"....cda....hde....",
"....cda....cda....",
"....cda....mde....",
"....cdlcckmdd#....",
"....cddddddgk.....",
"....nhhhhbcf......",
"..................",
".................."};
