/* XPM */
const char * button_ok_xpm[] = {
"32 32 132 2",
"  	c None",
". 	c #18AD00",
"+ 	c #1AB000",
"@ 	c #08A400",
"# 	c #0AA700",
"$ 	c #0C9100",
"% 	c #00A100",
"& 	c #009A00",
"* 	c #009E00",
"= 	c #007500",
"- 	c #009B00",
"; 	c #009C00",
"> 	c #008E00",
", 	c #009900",
"' 	c #0BA20B",
") 	c #006D00",
"! 	c #009100",
"~ 	c #009800",
"{ 	c #008900",
"] 	c #009500",
"^ 	c #12A512",
"/ 	c #56D256",
"( 	c #1FAB1F",
"_ 	c #009600",
": 	c #005F00",
"< 	c #009400",
"[ 	c #3EC93E",
"} 	c #008600",
"| 	c #0FA10F",
"1 	c #4CD74C",
"2 	c #78F878",
"3 	c #1AA71A",
"4 	c #008F00",
"5 	c #3DD53D",
"6 	c #3AD63A",
"7 	c #008200",
"8 	c #008C00",
"9 	c #059605",
"0 	c #2DC82D",
"a 	c #60FF60",
"b 	c #50EA50",
"c 	c #0E9D0E",
"d 	c #15AF15",
"e 	c #41FF41",
"f 	c #26D426",
"g 	c #008B00",
"h 	c #007E00",
"i 	c #039203",
"j 	c #1DC51D",
"k 	c #3CF83C",
"l 	c #37E937",
"m 	c #059205",
"n 	c #038E03",
"o 	c #22FF22",
"p 	c #13D213",
"q 	c #008700",
"r 	c #007A00",
"s 	c #008500",
"t 	c #018E01",
"u 	c #0EC30E",
"v 	c #1FF81F",
"w 	c #1DE81D",
"x 	c #007F00",
"y 	c #008300",
"z 	c #04E004",
"A 	c #05FF05",
"B 	c #02D002",
"C 	c #007600",
"D 	c #008100",
"E 	c #008A00",
"F 	c #00C100",
"G 	c #04F704",
"H 	c #05D005",
"I 	c #007B00",
"J 	c #007D00",
"K 	c #00B400",
"L 	c #00FA00",
"M 	c #00CB00",
"N 	c #007200",
"O 	c #00BB00",
"P 	c #00F200",
"Q 	c #006B00",
"R 	c #007400",
"S 	c #009000",
"T 	c #00F400",
"U 	c #00C600",
"V 	c #00A700",
"W 	c #00E400",
"X 	c #006800",
"Y 	c #00DF00",
"Z 	c #00EE00",
"` 	c #00D700",
" .	c #00DE00",
"..	c #00A300",
"+.	c #006400",
"@.	c #007100",
"#.	c #00E800",
"$.	c #009D00",
"%.	c #004D00",
"&.	c #006900",
"*.	c #00E100",
"=.	c #00DA00",
"-.	c #004A00",
";.	c #007000",
">.	c #00DB00",
",.	c #00D400",
"'.	c #004700",
").	c #00B200",
"!.	c #00D500",
"~.	c #00CE00",
"{.	c #007900",
"].	c #006200",
"^.	c #00CF00",
"/.	c #005E00",
"(.	c #005800",
"_.	c #006A00",
":.	c #00C900",
"<.	c #00B500",
"[.	c #006300",
"}.	c #005B00",
"|.	c #00B600",
"1.	c #00C300",
"2.	c #00B000",
"3.	c #005500",
"4.	c #009200",
"5.	c #00BD00",
"6.	c #009F00",
"7.	c #006100",
"8.	c #005700",
"9.	c #007800",
"0.	c #005300",
"a.	c #004F00",
"                                                                ",
"                                                                ",
"                                                                ",
"                                                                ",
"                                                            . + ",
"                                                        @ # # $ ",
"% &                                                 * % % % =   ",
"- ; >                                           , ; ' ; ; )     ",
"! ~ ~ {                                     ] ~ ^ / ( _ :       ",
"  < [ < }                               ! < | 1 2 3 !           ",
"  4 5 6 4 7                         8 4 9 0 a b c 8             ",
"  } d e f g h                   { g i j k e l m 7               ",
"    n o o p q r             s s t u v o o w n x                 ",
"    y z A A B y C       D D E F G A A A H y I                   ",
"    J K L L L M h N = J h O P L L L L M h Q                     ",
"    R S T T T T U r r V W T T T T T U r X                       ",
"      C Y Z Z Z Z `  .Z Z Z Z Z Z ..C +.                        ",
"      @.O #.#.#.#.#.#.#.#.#.#.#.$.@.%.                          ",
"      &.! *.*.*.*.*.*.*.*.*.=.~ ) -.                            ",
"        ;.>.>.>.>.>.>.>.>.,.h &.'.                              ",
"        +.).!.!.!.!.!.!.~.{.].                                  ",
"        : S ^.^.^.^.^.F = /.                                    ",
"        (._.:.:.:.:.<.[.(.                                      ",
"          }.|.1.1.2.].3.                                        ",
"          }.4.5.6.7.3.                                          ",
"          8.9.] }.0.                                            ",
"            }.}.%.                                              ",
"            }.a.                                                ",
"                                                                ",
"                                                                ",
"                                                                ",
"                                                                "};
