/* XPM */
const char * cancel_18_xpm[] = {
"18 18 60 1",
" 	c None",
".	c #EF7028",
"+	c #EE6F29",
"@	c #E04010",
"#	c #DE3A0E",
"$	c #F9B077",
"%	c #FAB57E",
"&	c #EB6A28",
"*	c #E24412",
"=	c #F86F31",
"-	c #F46026",
";	c #DC2F0A",
">	c #FEBF90",
",	c #FAA86F",
"'	c #E86226",
")	c #E24513",
"!	c #F87032",
"~	c #FE7134",
"{	c #F75D23",
"]	c #DC2D0A",
"^	c #FEB17C",
"/	c #F99B5E",
"(	c #E65821",
"_	c #E34514",
":	c #F97031",
"<	c #FE7234",
"[	c #F75E24",
"}	c #DD2F0A",
"|	c #FEA268",
"1	c #F98C4C",
"2	c #E5501C",
"3	c #E44816",
"4	c #F87031",
"5	c #F85F25",
"6	c #DE310C",
"7	c #FE9154",
"8	c #FA7F3F",
"9	c #FA7334",
"0	c #F75F24",
"a	c #DE310D",
"b	c #FE7E3F",
"c	c #F96126",
"d	c #E0330E",
"e	c #FE6629",
"f	c #F9551D",
"g	c #DF2B09",
"h	c #FE4E18",
"i	c #F73B0E",
"j	c #DC1A03",
"k	c #FE340B",
"l	c #F72104",
"m	c #DB0A00",
"n	c #FE1301",
"o	c #F70300",
"p	c #DA0100",
"q	c #FE0000",
"r	c #F60000",
"s	c #D80000",
"t	c #F20000",
"u	c #D60000",
"                  ",
"                  ",
"   .+        @#   ",
"  .$%&      *=-;  ",
"  +%>,'    )!~{]  ",
"   &,^/(  _:<[}   ",
"    '/|1234<56    ",
"     (1789<0a     ",
"      28b<cd      ",
"      39<efg      ",
"     _4<cfhij     ",
"    ):<0dgiklm    ",
"   *!<5a  jlnop   ",
"  @=~[6    moqrs  ",
"  #-{}      prtu  ",
"   ;]        su   ",
"                  ",
"                  "};
