/* XPM */
const char * chapter_18_xpm[] = {
"18 18 157 2",
"  	c None",
". 	c #9EAAD6",
"+ 	c #2D92EB",
"@ 	c #C3CBE8",
"# 	c #D6DCF0",
"$ 	c #3C9AEC",
"% 	c #78A8E2",
"& 	c #8897CC",
"* 	c #B1BCDF",
"= 	c #EEF0F9",
"- 	c #F0F2F9",
"; 	c #ACB7DC",
"> 	c #447ACD",
", 	c #206ACD",
"' 	c #6DAAE8",
") 	c #8E9FD2",
"! 	c #929FD0",
"~ 	c #DDE2F1",
"{ 	c #FEFEFF",
"] 	c #FAFAFD",
"^ 	c #CED4EC",
"/ 	c #C9D0E9",
"( 	c #9FAFDA",
"_ 	c #71A1E1",
": 	c #5FA8EC",
"< 	c #8FACDD",
"[ 	c #A8B3DB",
"} 	c #A9B4DB",
"| 	c #C9D0EA",
"1 	c #F9FAFD",
"2 	c #FFFFFF",
"3 	c #FDFDFF",
"4 	c #E0E4F3",
"5 	c #D3D8EE",
"6 	c #C6CDE8",
"7 	c #8DA8DB",
"8 	c #2A6DCD",
"9 	c #78A6E0",
"0 	c #96A4D4",
"a 	c #D4DAF0",
"b 	c #AFB9DE",
"c 	c #E4E8F5",
"d 	c #F9F9FF",
"e 	c #EDEEFA",
"f 	c #CFD4EC",
"g 	c #D9DDF0",
"h 	c #94A4D4",
"i 	c #6095DD",
"j 	c #69A6E7",
"k 	c #8CA2D5",
"l 	c #C5CDE8",
"m 	c #D4DBF0",
"n 	c #E2E6F4",
"o 	c #FCFCFF",
"p 	c #F6F6FD",
"q 	c #F1F1FA",
"r 	c #CFD4EB",
"s 	c #DADEF1",
"t 	c #B1BBDF",
"u 	c #7497D7",
"v 	c #2564C7",
"w 	c #4594E4",
"x 	c #7EA1DA",
"y 	c #A0ACD7",
"z 	c #E6E9F5",
"A 	c #CFD5EC",
"B 	c #F9F9FE",
"C 	c #F3F3FB",
"D 	c #EDEDF8",
"E 	c #DEE1F2",
"F 	c #C7CEE8",
"G 	c #D0D4EB",
"H 	c #839CD4",
"I 	c #4B7FD2",
"J 	c #72A7E5",
"K 	c #93A3D4",
"L 	c #D6DBF0",
"M 	c #E8EAF7",
"N 	c #F5F5FD",
"O 	c #EEEEF8",
"P 	c #E9E9F6",
"Q 	c #B8C0E1",
"R 	c #DEE0F1",
"S 	c #A6B4DD",
"T 	c #5E89D2",
"U 	c #438EE0",
"V 	c #89A3D7",
"W 	c #B2BBDE",
"X 	c #D8DDEF",
"Y 	c #EBEBF7",
"Z 	c #E7E7F4",
"` 	c #DBDDF0",
" .	c #BDC5E4",
"..	c #E2E3F2",
"+.	c #C1C6E4",
"@.	c #7F9DD8",
"#.	c #3464C5",
"$.	c #7EAAE3",
"%.	c #9CA8D5",
"&.	c #D2D8EE",
"*.	c #D3D7ED",
"=.	c #E7E8F5",
"-.	c #E8E8F5",
";.	c #E3E4F3",
">.	c #C8CEE8",
",.	c #D4D8ED",
"'.	c #E5E5F4",
").	c #D4D7EC",
"!.	c #9BAEDC",
"~.	c #4A76CB",
"{.	c #4386D8",
"].	c #92A8D9",
"^.	c #B2BBDF",
"/.	c #C4CBE6",
"(.	c #D7DAEE",
"_.	c #CBD0E9",
":.	c #E4E4F3",
"<.	c #E5E6F4",
"[.	c #C5CBE6",
"}.	c #799FDD",
"|.	c #1C44B4",
"1.	c #598ED8",
"2.	c #92A4D5",
"3.	c #B1BADC",
"4.	c #C9CDE5",
"5.	c #E0E2F1",
"6.	c #C6CBE6",
"7.	c #D9DBEF",
"8.	c #C9CFE8",
"9.	c #8D9DD0",
"0.	c #8599D1",
"a.	c #81A8E3",
"b.	c #1A4FBA",
"c.	c #6A95D8",
"d.	c #9AA9D4",
"e.	c #A9B3D5",
"f.	c #CDD2E8",
"g.	c #B6BDDD",
"h.	c #A0ACD5",
"i.	c #8B9DD0",
"j.	c #7992CF",
"k.	c #678DD4",
"l.	c #4779D0",
"m.	c #1442B4",
"n.	c #326ECA",
"o.	c #799BD5",
"p.	c #A2B2D8",
"q.	c #ABB5D6",
"r.	c #9DAED6",
"s.	c #7995D0",
"t.	c #597AC8",
"u.	c #3B6AC6",
"v.	c #336BC7",
"w.	c #4F7ECD",
"x.	c #6993D5",
"y.	c #4972C5",
"z.	c #3763C1",
"                                    ",
"                  .                 ",
"+               @ #                 ",
"$ % &         * = - ;   > ,         ",
"  ' ) !       ~ { ] ^ / ( _         ",
"  : < [ }   | 1 2 3 4 5 6 7 8       ",
"    9 0 a b c 2 2 d e f g h i       ",
"    j k l m n 2 o p q r s t u v     ",
"    w x y z A o B C D E F G H I     ",
"      J K ^ L M N O P P Q R S T     ",
"      U V W X g q Y Z `  ...+.@.#.  ",
"        $.%.&.*.=.-.;.>.,.'.).!.~.  ",
"        {.].^./.R Z (._.:.<.[.. }.|.",
"          1.2.3.4.5.6.7.8.y 9.0.a.b.",
"            c.d.e.f.g.h.i.j.k.l.m.  ",
"            n.o.p.q.r.s.t.u.        ",
"              v.w.x.y.z.            ",
"                                    "};
