/* XPM */
const char * clock_18_xpm[] = {
"18 18 202 2",
"  	c None",
". 	c #2360BB",
"+ 	c #2468C0",
"@ 	c #2F73C4",
"# 	c #3E7CC7",
"$ 	c #3F79C4",
"% 	c #2B68BC",
"& 	c #1E54B0",
"* 	c #163DA0",
"= 	c #2768C0",
"- 	c #438ED3",
"; 	c #82BAE5",
"> 	c #A8D6F2",
", 	c #85BAE5",
"' 	c #94C2E7",
") 	c #9CD1F0",
"! 	c #7CB2E1",
"~ 	c #427DC5",
"{ 	c #173E9F",
"] 	c #2669C1",
"^ 	c #61ABE2",
"/ 	c #BFE4F8",
"( 	c #E7F7FE",
"_ 	c #F3FBFF",
": 	c #A4B9DF",
"< 	c #B4C5E3",
"[ 	c #E1F6FF",
"} 	c #D4F2FE",
"| 	c #B5E1F7",
"1 	c #5E9ED6",
"2 	c #123599",
"3 	c #286AC1",
"4 	c #5CAAE1",
"5 	c #D0EEFC",
"6 	c #E7F8FF",
"7 	c #EAF9FF",
"8 	c #EBF9FF",
"9 	c #E2F3FC",
"0 	c #DFF3FD",
"a 	c #DDF4FD",
"b 	c #C1D8E3",
"c 	c #BEDCE8",
"d 	c #B7E5FB",
"e 	c #5898D4",
"f 	c #112D93",
"g 	c #2663BD",
"h 	c #4290D5",
"i 	c #B1E1F8",
"j 	c #DDF5FF",
"k 	c #E3F7FF",
"l 	c #E2F7FF",
"m 	c #DBF3FD",
"n 	c #B3CAD2",
"o 	c #424B4F",
"p 	c #4B5A61",
"q 	c #B2DDF1",
"r 	c #95D4F6",
"s 	c #3369B8",
"t 	c #0A1985",
"u 	c #2B6EC3",
"v 	c #76B8E7",
"w 	c #C9EEFE",
"x 	c #D7F3FF",
"y 	c #DAF4FF",
"z 	c #DCF5FF",
"A 	c #B4CBD5",
"B 	c #454E52",
"C 	c #2A3337",
"D 	c #7A9DAC",
"E 	c #97D6F3",
"F 	c #7ED1F8",
"G 	c #4694D4",
"H 	c #112B90",
"I 	c #3679C8",
"J 	c #92D0F3",
"K 	c #C9EFFF",
"L 	c #D0F1FF",
"M 	c #D3F2FF",
"N 	c #D4F3FF",
"O 	c #C5E1EC",
"P 	c #ADC6D0",
"Q 	c #3C4549",
"R 	c #242F33",
"S 	c #6A95A8",
"T 	c #82C9E9",
"U 	c #75CCF4",
"V 	c #62C5F2",
"W 	c #4FAFE5",
"X 	c #1A3C9A",
"Y 	c #3E7FCB",
"Z 	c #73B6E7",
"` 	c #85AFDF",
" .	c #BFE8FC",
"..	c #C3E5F3",
"+.	c #67767C",
"@.	c #6B6F71",
"#.	c #0D1215",
"$.	c #4B6F7E",
"%.	c #679FB8",
"&.	c #7AC5E7",
"*.	c #76CBF3",
"=.	c #519DDA",
"-.	c #4B9EDA",
";.	c #2147A0",
">.	c #3F7DC8",
",.	c #6AABE0",
"'.	c #709DD5",
").	c #ABE0FB",
"!.	c #B6E8FF",
"~.	c #A7D3E7",
"{.	c #586971",
"].	c #858788",
"^.	c #13191B",
"/.	c #151C1F",
"(.	c #6697AD",
"_.	c #84CFF2",
":.	c #5895D1",
"<.	c #5399D5",
"[.	c #2547A0",
"}.	c #3971C1",
"|.	c #80C9F2",
"1.	c #99DDFD",
"2.	c #A2E0FE",
"3.	c #AAE3FE",
"4.	c #B0E5FE",
"5.	c #90B7C8",
"6.	c #617983",
"7.	c #88ACBB",
"8.	c #8EB6C8",
"9.	c #88B4C7",
"0.	c #91C9E2",
"a.	c #94D8F7",
"b.	c #87D4F6",
"c.	c #6FBBE8",
"d.	c #223B98",
"e.	c #2E5FB6",
"f.	c #6FB0E2",
"g.	c #99DBFA",
"h.	c #A6E1FB",
"i.	c #B2E6FC",
"j.	c #BCEAFD",
"k.	c #C3ECFE",
"l.	c #C4EAFB",
"m.	c #C4ECFD",
"n.	c #C0EBFE",
"o.	c #B8E8FD",
"p.	c #ADE3FB",
"q.	c #A0DEFA",
"r.	c #92D8F8",
"s.	c #639CD3",
"t.	c #17258A",
"u.	c #1D46A7",
"v.	c #5588CB",
"w.	c #9BD7F5",
"x.	c #B1E5FC",
"y.	c #BFEBFD",
"z.	c #CAEFFF",
"A.	c #D1F2FF",
"B.	c #D5F3FF",
"C.	c #CEF0FF",
"D.	c #C5EDFE",
"E.	c #B9E8FD",
"F.	c #AAE2FB",
"G.	c #93D1F3",
"H.	c #4567B2",
"I.	c #060978",
"J.	c #2549A6",
"K.	c #7CABDC",
"L.	c #B8E6FB",
"M.	c #CAEFFE",
"N.	c #DEF5FF",
"O.	c #DDF2FD",
"P.	c #B0E2FA",
"Q.	c #719AD0",
"R.	c #121982",
"S.	c #2442A1",
"T.	c #8AAEDB",
"U.	c #C7E7F9",
"V.	c #E8F8FF",
"W.	c #A6BFE3",
"X.	c #B8CAE6",
"Y.	c #BFE3F7",
"Z.	c #7F9FD1",
"`.	c #141B82",
" +	c #233A9A",
".+	c #6B82C1",
"++	c #A8BBDE",
"@+	c #D6E3F3",
"#+	c #BCCAE6",
"$+	c #C9D3E9",
"%+	c #D0E0F1",
"&+	c #A1B4DA",
"*+	c #6273B5",
"=+	c #161B82",
"-+	c #13238B",
";+	c #2F3C98",
">+	c #4851A2",
",+	c #595FA8",
"'+	c #575AA5",
")+	c #43489B",
"!+	c #282C8B",
"~+	c #0A0B78",
"                                    ",
"          . + @ # $ % & *           ",
"        = - ; > , ' ) ! ~ {         ",
"      ] ^ / ( _ : < [ } | 1 2       ",
"    3 4 5 6 7 8 9 0 a b c d e f     ",
"  g h i j [ k k l m n o p q r s t   ",
"  u v w x y z z y A B C D E F G H   ",
"  I J K L M N O P Q R S T U V W X   ",
"  Y Z `  .K ..+.@.#.$.%.&.*.=.-.;.  ",
"  >.,.'.).!.~.{.].^././.(._.:.<.[.  ",
"  }.|.1.2.3.4.5.6.7.8.9.0.a.b.c.d.  ",
"  e.f.g.h.i.j.k.l.m.n.o.p.q.r.s.t.  ",
"  u.v.w.x.y.z.A.B.M C.D.E.F.G.H.I.  ",
"    J.K.L.M.B.N.O.O.y L k.P.Q.R.    ",
"      S.T.U.j V.W.X.k x Y.Z.`.      ",
"         +.+++@+#+$+%+&+*+=+        ",
"          -+;+>+,+'+)+!+~+          ",
"                                    "};
