/* XPM */
const char * clock_16_xpm[] = {
"16 16 168 2",
"  	c None",
". 	c #2A6AC0",
"+ 	c #3475C6",
"@ 	c #4686CD",
"# 	c #4D8ACE",
"$ 	c #5088CB",
"% 	c #407AC5",
"& 	c #2D5FB5",
"* 	c #1E49A7",
"= 	c #3478C8",
"- 	c #5697D6",
"; 	c #91C2E9",
"> 	c #BADEF4",
", 	c #95BEE5",
"' 	c #A1C6E7",
") 	c #ADD8F3",
"! 	c #89BAE4",
"~ 	c #4F82C6",
"{ 	c #2652AA",
"] 	c #3479C9",
"^ 	c #63A4DD",
"/ 	c #B5DDF5",
"( 	c #E0F4FD",
"_ 	c #EEFAFF",
": 	c #C5D7EE",
"< 	c #CADDF0",
"[ 	c #DBF2FB",
"} 	c #C5E4F1",
"| 	c #A2D0EC",
"1 	c #578ACA",
"2 	c #2249A4",
"3 	c #2C6DC2",
"4 	c #5398D7",
"5 	c #ADDBF5",
"6 	c #DEF5FE",
"7 	c #E5F8FF",
"8 	c #E6F8FF",
"9 	c #E3F6FE",
"0 	c #DAF1FA",
"a 	c #B5CAD2",
"b 	c #7C8D95",
"c 	c #96B6C4",
"d 	c #94CBED",
"e 	c #4172BD",
"f 	c #132B91",
"g 	c #3779C8",
"h 	c #83C0EA",
"i 	c #CCEEFD",
"j 	c #DBF4FF",
"k 	c #DEF5FF",
"l 	c #DEF6FF",
"m 	c #DDF5FF",
"n 	c #B7CED7",
"o 	c #5D6A6F",
"p 	c #45545B",
"q 	c #82ABBD",
"r 	c #91D5F5",
"s 	c #579FDA",
"t 	c #1A3A9A",
"u 	c #4789D0",
"v 	c #A0D7F5",
"w 	c #CDF0FF",
"x 	c #D3F2FF",
"y 	c #D5F3FF",
"z 	c #CDE9F4",
"A 	c #B9D3DD",
"B 	c #525E63",
"C 	c #36464D",
"D 	c #6895A8",
"E 	c #7FC6E6",
"F 	c #71CBF4",
"G 	c #56B3E7",
"H 	c #2451A8",
"I 	c #4A8BD1",
"J 	c #7EB8E6",
"K 	c #A4CDEE",
"L 	c #C6EDFE",
"M 	c #C7E9F8",
"N 	c #8498A0",
"O 	c #727A7D",
"P 	c #182125",
"Q 	c #4E7484",
"R 	c #6EABC7",
"S 	c #79C8ED",
"T 	c #62B4E7",
"U 	c #4EA0DC",
"V 	c #2A5AAD",
"W 	c #4987CD",
"X 	c #6FABDF",
"Y 	c #8CBFE9",
"Z 	c #B0E4FD",
"` 	c #ACDBF1",
" .	c #6F8893",
"..	c #7D8386",
"+.	c #202A2D",
"@.	c #222D32",
"#.	c #3A525D",
"$.	c #77B3CF",
"%.	c #6FB3E2",
"&.	c #589DD6",
"*.	c #3059AC",
"=.	c #4680C9",
"-.	c #86CCF3",
";.	c #9DDEFD",
">.	c #A8E2FD",
",.	c #B0E5FE",
"'.	c #A1CBDD",
").	c #7B98A4",
"!.	c #96BBCB",
"~.	c #98C1D4",
"{.	c #94C5DA",
"].	c #97D3EF",
"^.	c #8FD7F7",
"/.	c #76BFEA",
"(.	c #3152A6",
"_.	c #3668BA",
":.	c #77B5E4",
"<.	c #A1DEFA",
"[.	c #B1E5FC",
"}.	c #BDEAFD",
"|.	c #C9EDFD",
"1.	c #C9EEFE",
"2.	c #C3ECFE",
"3.	c #B9E8FD",
"4.	c #ABE2FB",
"5.	c #9ADAF8",
"6.	c #6CA3D7",
"7.	c #213493",
"8.	c #2953AE",
"9.	c #5A89CA",
"0.	c #9FD3F2",
"a.	c #CBEFFE",
"b.	c #D8F3FE",
"c.	c #D7F2FE",
"d.	c #D1F1FF",
"e.	c #B6E6FC",
"f.	c #96CBEE",
"g.	c #4B6BB4",
"h.	c #141D84",
"i.	c #395EB1",
"j.	c #7097D0",
"k.	c #B6DBF3",
"l.	c #D4F1FE",
"m.	c #E1F6FF",
"n.	c #C3D9F0",
"o.	c #CBDFF2",
"p.	c #CEEEFD",
"q.	c #ADD4F0",
"r.	c #6482C0",
"s.	c #293894",
"t.	c #3C58AB",
"u.	c #6B86C4",
"v.	c #AAC0E2",
"w.	c #D4E4F4",
"x.	c #B9CAE7",
"y.	c #C5D3EA",
"z.	c #CEE1F2",
"A.	c #A2B9DD",
"B.	c #6174B6",
"C.	c #2E3A95",
"D.	c #263897",
"E.	c #3E4EA2",
"F.	c #616CB1",
"G.	c #6E76B6",
"H.	c #6F74B3",
"I.	c #5B63AA",
"J.	c #363D95",
"K.	c #1C2185",
"                                ",
"        . + @ # $ % & *         ",
"      = - ; > , ' ) ! ~ {       ",
"    ] ^ / ( _ : < [ } | 1 2     ",
"  3 4 5 6 7 8 9 0 a b c d e f   ",
"  g h i j k l m n o p q r s t   ",
"  u v w x y z A B C D E F G H   ",
"  I J K L M N O P Q R S T U V   ",
"  W X Y Z `  ...+.@.#.$.%.&.*.  ",
"  =.-.;.>.,.'.).!.~.{.].^./.(.  ",
"  _.:.<.[.}.L |.1.2.3.4.5.6.7.  ",
"  8.9.0.}.a.y b.c.d.L e.f.g.h.  ",
"    i.j.k.l.m.n.o.m p.q.r.s.    ",
"      t.u.v.w.x.y.z.A.B.C.      ",
"        D.E.F.G.H.I.J.K.        ",
"                                "};
