/* XPM */
const char * cutav_18_xpm[] = {
"18 18 105 2",
"  	c None",
". 	c #CDCDD9",
"+ 	c #CBCBD7",
"@ 	c #E7E7ED",
"# 	c #D2D2DD",
"$ 	c #E3E3EA",
"% 	c #CCCCD9",
"& 	c #DBDBE4",
"* 	c #E4E4EB",
"= 	c #BCBCCC",
"- 	c #C3C3D2",
"; 	c #F4F4F7",
"> 	c #D4D4DE",
", 	c #ACACC0",
"' 	c #BEBECD",
") 	c #84849F",
"! 	c #BCBCCB",
"~ 	c #C1C1CF",
"{ 	c #9B9BB3",
"] 	c #ABABBF",
"^ 	c #A6A6BA",
"/ 	c #CECEDA",
"( 	c #ADADC0",
"_ 	c #7F7C95",
": 	c #9B9BB2",
"< 	c #BDBDCC",
"[ 	c #9797AF",
"} 	c #B9751C",
"| 	c #E6AE1D",
"1 	c #F9D422",
"2 	c #F6D225",
"3 	c #E2A621",
"4 	c #A19792",
"5 	c #A9A9BC",
"6 	c #797997",
"7 	c #C07A17",
"8 	c #E9A615",
"9 	c #E7A61A",
"0 	c #E4A31E",
"a 	c #F6C822",
"b 	c #F8D326",
"c 	c #F7D529",
"d 	c #BBB25B",
"e 	c #8F7B6F",
"f 	c #896A51",
"g 	c #D8890F",
"h 	c #D18714",
"i 	c #EEB11F",
"j 	c #FBD522",
"k 	c #FEE729",
"l 	c #F2CA28",
"m 	c #EDBC25",
"n 	c #E9B323",
"o 	c #EAB422",
"p 	c #DB840A",
"q 	c #BA7012",
"r 	c #E1A11B",
"s 	c #F9C61E",
"t 	c #E7B321",
"u 	c #E7B421",
"v 	c #FEE427",
"w 	c #FDD825",
"x 	c #FCD625",
"y 	c #EEBF22",
"z 	c #E08206",
"A 	c #BD6E0E",
"B 	c #BA7618",
"C 	c #EAA415",
"D 	c #DF9E1A",
"E 	c #E9B41E",
"F 	c #F8CF20",
"G 	c #EDB320",
"H 	c #E9AB21",
"I 	c #F7C41F",
"J 	c #E2A61D",
"K 	c #C96E09",
"L 	c #EF8A02",
"M 	c #F29703",
"N 	c #EB9A0A",
"O 	c #CF8614",
"P 	c #E3A31A",
"Q 	c #F1B21A",
"R 	c #D9961C",
"S 	c #F1B218",
"T 	c #A75D11",
"U 	c #B86A10",
"V 	c #A36118",
"W 	c #D58F16",
"X 	c #E89F13",
"Y 	c #BE7919",
"Z 	c #EFAB12",
"` 	c #C17915",
" .	c #E8930C",
"..	c #AA6415",
"+.	c #D6850F",
"@.	c #DC8C0F",
"#.	c #D57F0B",
"$.	c #E68806",
"%.	c #DD8408",
"&.	c #EB8B05",
"*.	c #AB6615",
"=.	c #A45E13",
"-.	c #C16C0B",
";.	c #C66F0A",
">.	c #A65F12",
"                    .               ",
"                  + @               ",
"                  # $         %     ",
"                  + &       . *     ",
"                  = .     - ; >     ",
"                  , ' ) ! $ ~       ",
"                  { ] ^ / (         ",
"                  _ : < [           ",
"      } | 1 2 3   4 5 6             ",
"    7 8 9 0 a b c d e f             ",
"    g h     i j k l m n o           ",
"    p q     r s t u v w x y         ",
"    z A   B C D   E F G H I J       ",
"    K L M N O     P Q     R S       ",
"      T U V       W X     Y Z       ",
"                  `  ...  +.@.      ",
"                    #.$.%.&.*.      ",
"                    =.-.;.>.        "};
