/* XPM */
const char * downarrow_18_xpm[] = {
"18 18 110 2",
"  	c None",
". 	c #245FBB",
"+ 	c #2259B7",
"@ 	c #2053B2",
"# 	c #1E4DAE",
"$ 	c #1B47A9",
"% 	c #1942A4",
"& 	c #173C9F",
"* 	c #14369C",
"= 	c #122F96",
"- 	c #102992",
"; 	c #0E238D",
"> 	c #0C1D89",
", 	c #091784",
"' 	c #06127F",
") 	c #040C7B",
"! 	c #020677",
"~ 	c #2364C2",
"{ 	c #257FE1",
"] 	c #3C9BF7",
"^ 	c #409EF8",
"/ 	c #3F9DF7",
"( 	c #3F9CF6",
"_ 	c #3F9BF6",
": 	c #3F9BF5",
"< 	c #3E9AF5",
"[ 	c #3E99F4",
"} 	c #3D98F3",
"| 	c #3892F0",
"1 	c #1557C2",
"2 	c #010C7E",
"3 	c #2566C4",
"4 	c #5FAEFA",
"5 	c #B8DDFF",
"6 	c #B9DDFF",
"7 	c #5CA8F5",
"8 	c #071989",
"9 	c #215DBC",
"0 	c #3785E0",
"a 	c #7DBDFC",
"b 	c #95CCFF",
"c 	c #96CCFF",
"d 	c #8FC9FF",
"e 	c #7BC0FF",
"f 	c #7EC1FF",
"g 	c #76B8FA",
"h 	c #2A66C8",
"i 	c #020E7F",
"j 	c #1D56B9",
"k 	c #2E81E1",
"l 	c #61B1FD",
"m 	c #71BAFF",
"n 	c #72BAFF",
"o 	c #6EB9FF",
"p 	c #53ACFF",
"q 	c #309CFF",
"r 	c #1B93FF",
"s 	c #1D92FD",
"t 	c #1966D1",
"u 	c #041688",
"v 	c #164FB5",
"w 	c #1F81EA",
"x 	c #49A6FF",
"y 	c #4DA8FF",
"z 	c #4AA7FF",
"A 	c #4BA7FF",
"B 	c #329CFF",
"C 	c #0C8BFF",
"D 	c #0187FF",
"E 	c #0085FE",
"F 	c #0069E0",
"G 	c #001A8D",
"H 	c #1240A8",
"I 	c #1377E6",
"J 	c #2092FE",
"K 	c #2093FF",
"L 	c #1E92FF",
"M 	c #158DFF",
"N 	c #0286FF",
"O 	c #0085FF",
"P 	c #0084FE",
"Q 	c #0066DD",
"R 	c #001183",
"S 	c #0E3AA6",
"T 	c #076CE2",
"U 	c #0683FE",
"V 	c #0684FF",
"W 	c #0583FF",
"X 	c #0181FF",
"Y 	c #0180FD",
"Z 	c #0061DC",
"` 	c #00178A",
" .	c #0B35A4",
"..	c #0C67DE",
"+.	c #1085FD",
"@.	c #1087FF",
"#.	c #0960D8",
"$.	c #011D91",
"%.	c #0D309E",
"&.	c #2173DF",
"*.	c #2C94FE",
"=.	c #2C93FE",
"-.	c #1F6EDC",
";.	c #072091",
">.	c #0E2391",
",.	c #3374D7",
"'.	c #3272D5",
").	c #0B1C8B",
"!.	c #000172",
"~.	c #000072",
"                                    ",
"                                    ",
"                                    ",
"  . + @ # $ % & * = - ; > , ' ) !   ",
"~ { ] ^ ^ / / ( _ : < < [ [ } | 1 2 ",
"3 4 5 6 6 6 6 6 6 6 6 6 6 6 6 5 7 8 ",
"9 0 a b c c c c c c c c d e f g h i ",
"  j k l m n n n n n o p q r s t u   ",
"    v w x y y y z A B C D E F G     ",
"      H I J K K L M N O P Q R       ",
"        S T U V W X X Y Z `         ",
"           ...+.@.@.+.#.$.          ",
"            %.&.*.=.-.;.            ",
"              >.,.'.).              ",
"                !.~.                ",
"                                    ",
"                                    ",
"                                    "};
