/* XPM */
const char * editdelete_18_xpm[] = {
"18 18 155 2",
"  	c None",
". 	c #D1D5E0",
"+ 	c #D8DBE4",
"@ 	c #D4D8E2",
"# 	c #CED2DD",
"$ 	c #CACDDA",
"% 	c #B8BDCC",
"& 	c #B9BECE",
"* 	c #E0E3EA",
"= 	c #FFFFFF",
"- 	c #FEFFFF",
"; 	c #FAFBFC",
"> 	c #F3F5F9",
", 	c #EFF0F7",
"' 	c #D2D6E1",
") 	c #D7DAE5",
"! 	c #BFC4D2",
"~ 	c #FCFDFD",
"{ 	c #F7F8FB",
"] 	c #F2F4F9",
"^ 	c #EEF0F6",
"/ 	c #DCDEE7",
"( 	c #BBC0CF",
"_ 	c #FDFEFE",
": 	c #F9FAFC",
"< 	c #F4F6F9",
"[ 	c #D6DAE3",
"} 	c #F6F7F9",
"| 	c #DFE1EA",
"1 	c #B7BCCC",
"2 	c #F6F7FA",
"3 	c #9CA0B0",
"4 	c #9FA3B3",
"5 	c #9DA2B1",
"6 	c #9A9FAF",
"7 	c #9499AB",
"8 	c #8A8EA0",
"9 	c #FBFCFD",
"0 	c #F8F9FB",
"a 	c #EFF1F7",
"b 	c #EBEDF4",
"c 	c #DADDE7",
"d 	c #CBCFDB",
"e 	c #C1C5D2",
"f 	c #747885",
"g 	c #FFF8F5",
"h 	c #FFFEFD",
"i 	c #FEFEFE",
"j 	c #ECEAEF",
"k 	c #E6D8DC",
"l 	c #D7D8E2",
"m 	c #D0D4DF",
"n 	c #C6CAD6",
"o 	c #FFF4F0",
"p 	c #FFD1C1",
"q 	c #FFDED3",
"r 	c #FCFAFA",
"s 	c #EEBAB4",
"t 	c #F4816F",
"u 	c #E3B4B3",
"v 	c #D8D9E3",
"w 	c #CCD0DB",
"x 	c #FFD6C8",
"y 	c #FFB198",
"z 	c #FFAB91",
"A 	c #F9CFC5",
"B 	c #EFEEF4",
"C 	c #F1CBC7",
"D 	c #FD6346",
"E 	c #FF4629",
"F 	c #F17D71",
"G 	c #E0D4DB",
"H 	c #D2D5DF",
"I 	c #FFF6F3",
"J 	c #FFB7A0",
"K 	c #FF8E6E",
"L 	c #FE8466",
"M 	c #F99784",
"N 	c #FE6245",
"O 	c #FF4529",
"P 	c #F76F5F",
"Q 	c #E7CCD0",
"R 	c #E1E4ED",
"S 	c #D6D9E2",
"T 	c #FDFDFE",
"U 	c #FAFCFD",
"V 	c #FBEAE6",
"W 	c #FC9C84",
"X 	c #FF6C4A",
"Y 	c #FF5737",
"Z 	c #FF4426",
"` 	c #F96D5C",
" .	c #ECCED1",
"..	c #E7E9F1",
"+.	c #E4E7EF",
"@.	c #D9DBE5",
"#.	c #FAFBFD",
"$.	c #F7F4F6",
"%.	c #FAB0A2",
"&.	c #FF593A",
"*.	c #FF3217",
"=.	c #F68078",
"-.	c #EBE8EE",
";.	c #E8EBF2",
">.	c #E6E8F0",
",.	c #DADDE5",
"'.	c #FBFBFD",
").	c #F9CAC2",
"!.	c #FE684D",
"~.	c #FF381E",
"{.	c #FF210D",
"].	c #FD251D",
"^.	c #F38E92",
"/.	c #E9E6EE",
"(.	c #DADDE6",
"_.	c #F9CDC6",
":.	c #FE6549",
"<.	c #FC705E",
"[.	c #F6B7B3",
"}.	c #FC443D",
"|.	c #FF0302",
"1.	c #FD1718",
"2.	c #F18F94",
"3.	c #E8E4EC",
"4.	c #DBDDE6",
"5.	c #FAB1A4",
"6.	c #FE543A",
"7.	c #FC7362",
"8.	c #F6D8D7",
"9.	c #F2F4F8",
"0.	c #F3D8DC",
"a.	c #FB3536",
"b.	c #FE1112",
"c.	c #F47579",
"d.	c #E9DBE2",
"e.	c #F6F3F5",
"f.	c #F9ADA4",
"g.	c #F6D9D8",
"h.	c #F1F3F8",
"i.	c #F0C5CA",
"j.	c #EBD5DB",
"k.	c #FCFCFD",
"l.	c #F3F4F9",
"m.	c #E9EBF2",
"n.	c #DBDEE6",
"o.	c #B9BCC7",
"p.	c #8D909B",
"q.	c #8C909B",
"r.	c #8C8F9A",
"s.	c #8B8F9A",
"t.	c #8B8E9A",
"u.	c #8A8E9A",
"v.	c #8A8E99",
"w.	c #8A8D99",
"x.	c #878B97",
"  . + + + + @ # $ % &               ",
"  * = = = - ; > , ' ) !             ",
"  * = = = = ~ { ] @ ^ / (           ",
"  * = = = = _ : < [ : } | 1         ",
"  * = = = = _ ; 2 3 4 5 6 7 8       ",
"  * = = = = - 9 0 a b c d e f       ",
"  * = = g h i 9 { j k l m n f       ",
"  * = o p q r 0 > s t u v w f       ",
"  * = x y z A B C D E F G H f       ",
"  * = I J K L M N O P Q R S f       ",
"  * T U V W X Y Z `  ...+.@.f       ",
"  * #.{ $.%.&.Z *.=.-.;.>.,.f       ",
"  * '.{ ).!.Z ~.{.].^./...(.f       ",
"  * '._.:.E <.[.}.|.1.2.3.4.f       ",
"  * '.5.6.7.8.9.0.a.b.c.d.4.f       ",
"  * #.e.f.g.> h.h.i.^.j...(.f       ",
"  * k.: : { 2 < l.a ^ b m.n.f       ",
"  o.p.p.p.q.r.r.s.t.u.v.w.x.f       "};
