/* XPM */
const char * exit_16_xpm[] = {
"16 16 174 2",
"  	c None",
". 	c #AE3725",
"+ 	c #B55E4A",
"@ 	c #B7644D",
"# 	c #B5624B",
"$ 	c #B5624A",
"% 	c #B6624A",
"& 	c #B56248",
"* 	c #B56046",
"= 	c #B35E44",
"- 	c #B35D42",
"; 	c #B25C41",
"> 	c #B04A32",
", 	c #C7745A",
"' 	c #C47050",
") 	c #C16845",
"! 	c #C16A46",
"~ 	c #C26C47",
"{ 	c #C16B47",
"] 	c #C26E48",
"^ 	c #C4724B",
"/ 	c #C5754F",
"( 	c #C67851",
"_ 	c #C67A53",
": 	c #C77C56",
"< 	c #BD563B",
"[ 	c #B65E4A",
"} 	c #B8512D",
"| 	c #BA5A34",
"1 	c #C06642",
"2 	c #CF896C",
"3 	c #DEAC97",
"4 	c #E3B9A6",
"5 	c #DBA78E",
"6 	c #CD8866",
"7 	c #C4744D",
"8 	c #C47750",
"9 	c #C57B54",
"0 	c #C87853",
"a 	c #993723",
"b 	c #B7654E",
"c 	c #C16945",
"d 	c #E6BFAF",
"e 	c #F9EEE9",
"f 	c #F8EDE8",
"g 	c #F2E2DA",
"h 	c #F9F2EE",
"i 	c #F5E6DE",
"j 	c #DAA78E",
"k 	c #C77D56",
"l 	c #C77F59",
"m 	c #CA7C56",
"n 	c #993C26",
"o 	c #C06844",
"p 	c #E6C0B0",
"q 	c #F8ECE6",
"r 	c #DFAF98",
"s 	c #D08A6A",
"t 	c #D49679",
"u 	c #D39475",
"v 	c #EDD3C4",
"w 	c #F9F0EB",
"x 	c #DBAB91",
"y 	c #C8835C",
"z 	c #CA7E57",
"A 	c #983A25",
"B 	c #C26B47",
"C 	c #D29074",
"D 	c #FAF1ED",
"E 	c #DEAC95",
"F 	c #C06940",
"G 	c #DCA48A",
"H 	c #F5E6DF",
"I 	c #CC8764",
"J 	c #CB8560",
"K 	c #F3E1D6",
"L 	c #CB8C66",
"M 	c #CA7E58",
"N 	c #983924",
"O 	c #B6634A",
"P 	c #C16B46",
"Q 	c #E1B3A0",
"R 	c #F6E9E4",
"S 	c #C77956",
"T 	c #C27048",
"U 	c #DFAD94",
"V 	c #F6E8E2",
"W 	c #D0906F",
"X 	c #C67D57",
"Y 	c #E1B79F",
"Z 	c #FCF4EF",
"` 	c #D59F7F",
" .	c #CA7D57",
"..	c #983823",
"+.	c #B56249",
"@.	c #C26D47",
"#.	c #E4BFAE",
"$.	c #C3734C",
"%.	c #E0AE96",
"&.	c #F6E9E2",
"*.	c #D19372",
"=.	c #DDAF95",
"-.	c #FCF5F2",
";.	c #DAA789",
">.	c #CB7D58",
",.	c #973722",
"'.	c #B56147",
").	c #C3714A",
"!.	c #E2B5A0",
"~.	c #F9F1EC",
"{.	c #CC8765",
"].	c #C4754E",
"^.	c #E1B29A",
"/.	c #F6EAE3",
"(.	c #D39877",
"_.	c #C8855E",
":.	c #E5C0AB",
"<.	c #FBF3EE",
"[.	c #D8A485",
"}.	c #CC7F5C",
"|.	c #973520",
"1.	c #D29374",
"2.	c #F8EEE9",
"3.	c #E9C6B4",
"4.	c #DDAB8F",
"5.	c #F2E1D7",
"6.	c #D09370",
"7.	c #D49E7D",
"8.	c #F8EEE7",
"9.	c #F3E0D4",
"0.	c #D39B7A",
"a.	c #CD8260",
"b.	c #96341F",
"c.	c #C67852",
"d.	c #C57650",
"e.	c #E2B6A0",
"f.	c #FCF4F0",
"g.	c #EDD2C4",
"h.	c #DBAC90",
"i.	c #E2BAA2",
"j.	c #F7ECE5",
"k.	c #DCAE93",
"l.	c #D49E7E",
"m.	c #CE8262",
"n.	c #95321E",
"o.	c #C9815B",
"p.	c #E2B9A3",
"q.	c #F7E9E1",
"r.	c #FAF3EF",
"s.	c #F8F1EC",
"t.	c #FBF5F1",
"u.	c #F4E1D6",
"v.	c #DDB197",
"w.	c #D49D7D",
"x.	c #D5A284",
"y.	c #CD7F61",
"z.	c #94301C",
"A.	c #C77F58",
"B.	c #CE906C",
"C.	c #DAA98C",
"D.	c #DDB297",
"E.	c #DBAB8D",
"F.	c #D39C7B",
"G.	c #D5A186",
"H.	c #C36447",
"I.	c #962715",
"J.	c #C97B55",
"K.	c #CA7C57",
"L.	c #CB7F5B",
"M.	c #B1351E",
"N.	c #993722",
"O.	c #983C26",
"P.	c #973620",
"Q.	c #942F1C",
"                                ",
"    . + @ # $ % & * = - ; >     ",
"  . , ' ) ! ~ { ] ^ / ( _ : <   ",
"  [ ' } | 1 2 3 4 5 6 7 8 9 0 a ",
"  b ) | c d e f g h i j k l m n ",
"  # ! o p q r s t u v w x y z A ",
"  % B C D E F G H I J K K L M N ",
"  O P Q R S T U V W X Y Z `  ...",
"  +.@.#.g $.7 %.&.*.y =.-.;.>.,.",
"  '.).!.~.{.].^./.(._.:.<.[.}.|.",
"  = / 1.2.3.k 4.5.6.7.8.9.0.a.b.",
"  - c.d.e.f.g.x h.i.j./.k.l.m.n.",
"  ; _ 8 o.p.q.r.s.t.u.v.w.x.y.z.",
"  > : 9 A.y B.C.D.E.F.l.x.G.H.I.",
"    < 0 m z  .J.K.L.a.m.y.H.M.  ",
"      N.O.A N ..,.P.b.n.Q.I.    "};
