/* XPM */
const char * filenew_16_xpm[] = {
"16 16 121 2",
"  	c None",
". 	c #C5CAD6",
"+ 	c #D5D8E2",
"@ 	c #D3D7E1",
"# 	c #D1D6E1",
"$ 	c #C9CEDA",
"% 	c #C4C8D5",
"& 	c #B0B6C6",
"* 	c #ACB1C4",
"= 	c #CCD0DC",
"- 	c #FEFEFE",
"; 	c #FDFDFD",
"> 	c #F5F7FB",
", 	c #F2F3FB",
"' 	c #CFD2DE",
") 	c #DBDDE7",
"! 	c #B8BDCE",
"~ 	c #F7F9FB",
"{ 	c #F3F5F9",
"] 	c #D1D5E0",
"^ 	c #F3F6FB",
"/ 	c #F8F8FB",
"( 	c #C3C8D6",
"_ 	c #FDFEFE",
": 	c #F8F9FB",
"< 	c #F9FBFD",
"[ 	c #B0B5C3",
"} 	c #BBBEC9",
"| 	c #C5C9D1",
"1 	c #BFC3CE",
"2 	c #9A9FB2",
"3 	c #F9FBFC",
"4 	c #FBFCFD",
"5 	c #C5C9D5",
"6 	c #B5B9C8",
"7 	c #AEB1C0",
"8 	c #9BA0B2",
"9 	c #A0A7B8",
"0 	c #6F7585",
"a 	c #F7F7FB",
"b 	c #F3F6FC",
"c 	c #ECEEF7",
"d 	c #DADDE8",
"e 	c #C6CBD8",
"f 	c #CBD0DE",
"g 	c #6A6F7D",
"h 	c #F3F7F8",
"i 	c #E3E6EE",
"j 	c #D7DAE6",
"k 	c #D0D3E0",
"l 	c #CCD0DD",
"m 	c #D1D5E2",
"n 	c #6D7280",
"o 	c #EBEDF5",
"p 	c #E7E9F1",
"q 	c #E1E3ED",
"r 	c #DDE0EB",
"s 	c #D8DCE6",
"t 	c #D6DAE4",
"u 	c #DBDEE9",
"v 	c #6E7380",
"w 	c #F0F2F7",
"x 	c #E8EBF5",
"y 	c #E7E9F2",
"z 	c #DEE1EC",
"A 	c #DBDEE8",
"B 	c #E0E3EE",
"C 	c #6E7381",
"D 	c #CCD1DC",
"E 	c #F6F9FB",
"F 	c #F2F5F8",
"G 	c #F1F2F7",
"H 	c #EEF1F7",
"I 	c #ECEEF5",
"J 	c #E8EBF2",
"K 	c #E4E7F0",
"L 	c #E2E4EE",
"M 	c #E3E7F2",
"N 	c #6F7482",
"O 	c #CED1DC",
"P 	c #F2F5F9",
"Q 	c #F3F6F9",
"R 	c #EDEEF6",
"S 	c #E9ECF3",
"T 	c #E6E8F1",
"U 	c #E3E7EE",
"V 	c #E0E2EC",
"W 	c #E6E8F2",
"X 	c #6F7481",
"Y 	c #F5F6F9",
"Z 	c #F3F6F8",
"` 	c #F2F3F8",
" .	c #EDF0F6",
"..	c #E8EBF3",
"+.	c #E7E9F3",
"@.	c #F2F3F9",
"#.	c #F3F5F8",
"$.	c #F1F3F8",
"%.	c #EDF0F7",
"&.	c #E1E2ED",
"*.	c #FCFEFE",
"=.	c #F9FCFE",
"-.	c #F9FBFE",
";.	c #F5F7FD",
">.	c #F2F5FC",
",.	c #EEF2F9",
"'.	c #ECEDF6",
").	c #F0F2FC",
"!.	c #707582",
"~.	c #BDC2CE",
"{.	c #848791",
"].	c #868995",
"^.	c #858993",
"/.	c #858893",
"(.	c #848793",
"_.	c #838792",
":.	c #838793",
"<.	c #828692",
"[.	c #828591",
"}.	c #838693",
"|.	c #646775",
". + @ @ @ # $ % & *             ",
"= - - - - ; > , ' ) !           ",
"= - - - - - ~ { ] ^ / (         ",
"= - - - - _ : < [ } | 1 2       ",
"= - - - - _ 3 4 5 6 7 8 9 0     ",
"= - - - - - 4 a b c d e f g     ",
"= - - - - ; : h i j k l m n     ",
"= - - - - 3 o p q r s t u v     ",
"= - - - 3 w x y i q z A B C     ",
"D - E ~ F G H I J K L z M N     ",
"O - P Q F F H R S T U V W X     ",
"D - { Y Z ` H  .S ..K q +.N     ",
"D - { Y Z ` H  .S ..K q +.N     ",
"O - @.{ #.$.%. .S y K &.W X     ",
"= - - - - *.=.-.;.>.,.'.).!.    ",
"~.{.].].^.]./.(._.:.<.[.}.|.    "};
