/* XPM */
const char * fileopen_24_xpm[] = {
"24 24 355 2",
"  	c None",
". 	c #939AD6",
"+ 	c #9299D5",
"@ 	c #969CD6",
"# 	c #B1B6E3",
"$ 	c #DBDEF6",
"% 	c #D1D5F1",
"& 	c #747DC8",
"* 	c #858DCF",
"= 	c #A6ABDE",
"- 	c #D7D8F3",
"; 	c #F1F1FE",
"> 	c #EBEBFB",
", 	c #E1E2F7",
"' 	c #9CA3DC",
") 	c #1F61D7",
"! 	c #407CE0",
"~ 	c #6EA0ED",
"{ 	c #6C9EED",
"] 	c #669BED",
"^ 	c #6298EB",
"/ 	c #5C94EB",
"( 	c #0F51D2",
"_ 	c #999ED8",
": 	c #C7CBED",
"< 	c #EBECFC",
"[ 	c #F1F1FF",
"} 	c #EDEDFD",
"| 	c #E9E9FB",
"1 	c #E7E7FA",
"2 	c #E4E4F9",
"3 	c #6A74C6",
"4 	c #3A74DD",
"5 	c #74A7EB",
"6 	c #C2EDFE",
"7 	c #BDE9FE",
"8 	c #B6E6FD",
"9 	c #B0E3FD",
"0 	c #AADEFD",
"a 	c #8DBBF4",
"b 	c #7B91D6",
"c 	c #B3B9E5",
"d 	c #E6E7F7",
"e 	c #F6F6FE",
"f 	c #F4F4FF",
"g 	c #E6E6FA",
"h 	c #E2E3F8",
"i 	c #BBC1EA",
"j 	c #5467C4",
"k 	c #3C75DD",
"l 	c #78AAEB",
"m 	c #CAF4FF",
"n 	c #C4F0FF",
"o 	c #BCECFF",
"p 	c #B3E1FD",
"q 	c #9BB7E8",
"r 	c #A0AFE1",
"s 	c #D5DBF3",
"t 	c #F0F2FB",
"u 	c #FAFAFE",
"v 	c #FAFAFF",
"w 	c #F5F5FF",
"x 	c #E4E4F8",
"y 	c #E7E8FA",
"z 	c #848ED3",
"A 	c #3A74DC",
"B 	c #77A9EB",
"C 	c #C1EBFD",
"D 	c #AED1F4",
"E 	c #9FB2E2",
"F 	c #CDD4F2",
"G 	c #E6E8F6",
"H 	c #F9FAFE",
"I 	c #FEFEFF",
"J 	c #FDFDFF",
"K 	c #E6E7FA",
"L 	c #CBD3F4",
"M 	c #85A0E5",
"N 	c #88A2E6",
"O 	c #6C88DA",
"P 	c #3155C5",
"Q 	c #3771DC",
"R 	c #75A8EB",
"S 	c #BEE5FA",
"T 	c #A8C0EC",
"U 	c #BFC5E8",
"V 	c #F4F5FC",
"W 	c #FFFFFF",
"X 	c #EAEBFD",
"Y 	c #BFCBF2",
"Z 	c #5E85DE",
"` 	c #6792E7",
" .	c #7BA3EE",
"..	c #79A0ED",
"+.	c #6690E6",
"@.	c #5E89E6",
"#.	c #5885E6",
"$.	c #234ECE",
"%.	c #346FDC",
"&.	c #73A7EB",
"*.	c #BDE7FC",
"=.	c #9BC0F1",
"-.	c #839EE0",
";.	c #B4CBF4",
">.	c #B3C9F4",
",.	c #B2C8F3",
"'.	c #B0C7F2",
").	c #AEC4F1",
"!.	c #ACC1F1",
"~.	c #A8BDF0",
"{.	c #A5BAEF",
"].	c #92AAEA",
"^.	c #678DE2",
"/.	c #5688E5",
"(.	c #70A6F7",
"_.	c #61A1FB",
":.	c #5F9FFB",
"<.	c #62A2FB",
"[.	c #4989F3",
"}.	c #3567E3",
"|.	c #153ECB",
"1.	c #326DDC",
"2.	c #72A6EA",
"3.	c #B3E1FC",
"4.	c #74A9F0",
"5.	c #5C88DE",
"6.	c #95B4EF",
"7.	c #9CBBF4",
"8.	c #98BAF2",
"9.	c #92B7F1",
"0.	c #8DB2F0",
"a.	c #87ADEF",
"b.	c #81A9EE",
"c.	c #7CA4ED",
"d.	c #6D98EA",
"e.	c #5F91EA",
"f.	c #77ACF8",
"g.	c #61A6FF",
"h.	c #4695FF",
"i.	c #438EFB",
"j.	c #1E5EE7",
"k.	c #0635CF",
"l.	c #0027C2",
"m.	c #2F6BDB",
"n.	c #70A5EA",
"o.	c #A2D2F7",
"p.	c #4682E3",
"q.	c #9FBFF1",
"r.	c #BDCEF5",
"s.	c #CBE0FC",
"t.	c #C7E5FC",
"u.	c #BCDFFC",
"v.	c #AFD6FC",
"w.	c #A0CBFB",
"x.	c #90BFFA",
"y.	c #83B6FA",
"z.	c #79AEFB",
"A.	c #72AAFD",
"B.	c #63A3FD",
"C.	c #418AFA",
"D.	c #3980F6",
"E.	c #3071ED",
"F.	c #245BE5",
"G.	c #0C34D3",
"H.	c #0126C3",
"I.	c #0026BE",
"J.	c #2C69DA",
"K.	c #6EA3E9",
"L.	c #C3EEFE",
"M.	c #8DC0F3",
"N.	c #437ADE",
"O.	c #E8F7FF",
"P.	c #D6E7FC",
"Q.	c #D3E7FA",
"R.	c #D7F6FE",
"S.	c #C4ECFF",
"T.	c #ADDBFF",
"U.	c #94C7FE",
"V.	c #7CB4FD",
"W.	c #68A3FC",
"X.	c #5594FB",
"Y.	c #4485F9",
"Z.	c #3575F4",
"`.	c #2764EC",
" +	c #1C50DF",
".+	c #0C34D1",
"++	c #0220C9",
"@+	c #0019C8",
"#+	c #0020C0",
"$+	c #2866DA",
"%+	c #6DA1E9",
"&+	c #AFDDFA",
"*+	c #6FA5EE",
"=+	c #75A0EA",
"-+	c #EBFDFF",
";+	c #D3F4FF",
">+	c #B0D3F5",
",+	c #B6DFFD",
"'+	c #A2D2FF",
")+	c #85BAFF",
"!+	c #6DA5FD",
"~+	c #5992F9",
"{+	c #4580F6",
"]+	c #306EF2",
"^+	c #1F5BED",
"/+	c #144AE3",
"(+	c #0C3DDA",
"_+	c #012BCE",
":+	c #0023CB",
"<+	c #0018C9",
"[+	c #0019C5",
"}+	c #0020BE",
"|+	c #2764D9",
"1+	c #6BA0E9",
"2+	c #9BCCF5",
"3+	c #588FE6",
"4+	c #B0CEF7",
"5+	c #DCF8FF",
"6+	c #BDECFF",
"7+	c #9ED4FF",
"8+	c #8AC0FC",
"9+	c #86BBFE",
"0+	c #78B0FE",
"a+	c #669FFC",
"b+	c #528DF8",
"c+	c #3D7AF4",
"d+	c #2866F0",
"e+	c #1351E9",
"f+	c #053CDD",
"g+	c #0134D8",
"h+	c #0133D6",
"i+	c #0026D0",
"j+	c #001BC1",
"k+	c #0020BC",
"l+	c #2562D7",
"m+	c #6299E7",
"n+	c #85B8F0",
"o+	c #5286E0",
"p+	c #E6FAFF",
"q+	c #BEE9FF",
"r+	c #A8DEFF",
"s+	c #98D4FF",
"t+	c #80B8FB",
"u+	c #7BB2FC",
"v+	c #73ABFD",
"w+	c #639CFB",
"x+	c #508AF7",
"y+	c #3874F2",
"z+	c #1C5AEA",
"A+	c #0946E4",
"B+	c #0843E3",
"C+	c #083DDD",
"D+	c #0636D6",
"E+	c #042ACF",
"F+	c #031CC9",
"G+	c #011EBE",
"H+	c #2260D7",
"I+	c #4782E2",
"J+	c #6EA3ED",
"K+	c #77A2EA",
"L+	c #D5F1FF",
"M+	c #CAEDFF",
"N+	c #BFE5FF",
"O+	c #B3DBFF",
"P+	c #A5CDFE",
"Q+	c #97BCFA",
"R+	c #90B6F9",
"S+	c #85ABF7",
"T+	c #7198F1",
"U+	c #5C84EA",
"V+	c #4C76E7",
"W+	c #446FE5",
"X+	c #4368DE",
"Y+	c #415FD6",
"Z+	c #3D59D1",
"`+	c #3550CC",
" @	c #233FC7",
".@	c #0827BB",
"+@	c #1E5DD6",
"@@	c #2C6ADA",
"#@	c #6293E7",
"$@	c #BDD1F7",
"%@	c #FBFEFF",
"&@	c #FAFDFF",
"*@	c #F4F8FF",
"=@	c #EDF0FD",
"-@	c #E7EAFB",
";@	c #E1E4F7",
">@	c #DADDF4",
",@	c #D3D6F1",
"'@	c #CCD0ED",
")@	c #C5C9E9",
"!@	c #BFC2E6",
"~@	c #BABDE3",
"{@	c #B3B6DF",
"]@	c #AEB0DB",
"^@	c #A8AAD8",
"/@	c #687ACC",
"(@	c #1F3ABD",
"_@	c #1555D3",
":@	c #1958D3",
"<@	c #6590E2",
"[@	c #F5F8FE",
"}@	c #FCFCFF",
"|@	c #F6F6FF",
"1@	c #F1F1FC",
"2@	c #EAEAF9",
"3@	c #E5E5F5",
"4@	c #DFDFF2",
"5@	c #D9D9EF",
"6@	c #D3D3EB",
"7@	c #CDCDE8",
"8@	c #C6C6E5",
"9@	c #C0C0E1",
"0@	c #BBBBDE",
"a@	c #B4B4DB",
"b@	c #4462C7",
"c@	c #1636BC",
"d@	c #0540CA",
"e@	c #275CD3",
"f@	c #8EADEB",
"g@	c #F9F9FF",
"h@	c #F2F2FB",
"i@	c #E9EAF7",
"j@	c #E1E2F2",
"k@	c #DADAED",
"l@	c #D2D2E8",
"m@	c #CACAE4",
"n@	c #C2C3DE",
"o@	c #BBBCD9",
"p@	c #B4B5D5",
"q@	c #AFB0D3",
"r@	c #A9ABCF",
"s@	c #2443BD",
"t@	c #003AC8",
"u@	c #1A51CF",
"v@	c #517FDD",
"w@	c #7A9CE4",
"x@	c #799BE4",
"y@	c #789AE4",
"z@	c #7898E3",
"A@	c #7697E2",
"B@	c #7394E1",
"C@	c #6E8EDE",
"D@	c #6989DA",
"E@	c #6483D7",
"F@	c #607ED3",
"G@	c #5B79CF",
"H@	c #5573CC",
"I@	c #506EC8",
"J@	c #4C69C5",
"K@	c #4863C1",
"L@	c #4561BF",
"M@	c #3C59BD",
"N@	c #0C2BB7",
"                                                ",
"                                                ",
"                                                ",
"                              . +               ",
"                          @ # $ % &             ",
"                      * = - ; > , '             ",
") ! ~ { ] ^ / (     _ : < [ } | 1 2 3           ",
"4 5 6 7 8 9 0 a b c d e f [ } | g h i j         ",
"k l m n o p q r s t u v w [ } | g x y z         ",
"A B m C D E F G H I J v w [ } K L M N O P       ",
"Q R m S T U V I W W J v w [ X Y Z `  ...+.@.#.$.",
"%.&.m *.=.-.;.>.,.'.).!.~.{.].^./.(._.:.<.[.}.|.",
"1.2.m 3.4.5.6.7.8.9.0.a.b.c.d.e.f.g.h.h.i.j.k.l.",
"m.n.m o.p.q.r.s.t.u.v.w.x.y.z.A.B.C.D.E.F.G.H.I.",
"J.K.L.M.N.O.P.Q.R.S.T.U.V.W.X.Y.Z.`. +.+++@+#+  ",
"$+%+&+*+=+-+;+>+,+'+)+!+~+{+]+^+/+(+_+:+<+[+}+  ",
"|+1+2+3+4+5+6+7+8+9+0+a+b+c+d+e+f+g+h+i+<+j+k+  ",
"l+m+n+o+p+q+r+s+t+u+v+w+x+y+z+A+B+C+D+E+F+G+    ",
"H+I+J+K+L+M+N+O+P+Q+R+S+T+U+V+W+X+Y+Z+`+ @.@    ",
"+@@@#@$@%@%@&@*@=@-@;@>@,@'@)@!@~@{@]@^@/@(@    ",
"_@:@<@[@W W W }@|@1@2@3@4@5@6@7@8@9@0@a@b@c@    ",
"d@e@f@W W W W I g@h@i@j@k@l@m@n@o@p@q@r@s@      ",
"t@u@v@w@x@y@z@A@B@C@D@E@F@G@H@I@J@K@L@M@N@      ",
"                                                "};
