/* XPM */
const char * filesave_16_xpm[] = {
"16 16 174 2",
"  	c None",
". 	c #B8B8CC",
"+ 	c #B2B3C7",
"@ 	c #A5A7BE",
"# 	c #A4A5BC",
"$ 	c #A4A4BC",
"% 	c #9C9CB5",
"& 	c #9696B1",
"* 	c #8F8FAC",
"= 	c #8888A7",
"- 	c #707397",
"; 	c #D4D8E2",
"> 	c #E2E5EC",
", 	c #ABB4C9",
"' 	c #7A89AB",
") 	c #B5BCCF",
"! 	c #EFEFF3",
"~ 	c #EEEEF2",
"{ 	c #EDEDF2",
"] 	c #ECECF1",
"^ 	c #EBEBF0",
"/ 	c #BDC3D4",
"( 	c #7A81A3",
"_ 	c #B2B3C8",
": 	c #CFD4E0",
"< 	c #E5E8EF",
"[ 	c #8D9CB8",
"} 	c #687BA1",
"| 	c #BBC4D4",
"1 	c #FFFFFF",
"2 	c #C3CBDA",
"3 	c #757D9F",
"4 	c #323367",
"5 	c #AAACC2",
"6 	c #C8CEDB",
"7 	c #E1E5ED",
"8 	c #B1BCCF",
"9 	c #A5B0C7",
"0 	c #D9DEE7",
"a 	c #BAC2D3",
"b 	c #646C91",
"c 	c #2B2C61",
"d 	c #A1A3BC",
"e 	c #BFC6D6",
"f 	c #D0D7E2",
"g 	c #DFE4EC",
"h 	c #DDE1E9",
"i 	c #DEE3EB",
"j 	c #DFE3EB",
"k 	c #DADFE8",
"l 	c #D7DCE6",
"m 	c #CDD1DD",
"n 	c #929CB5",
"o 	c #555D84",
"p 	c #26275C",
"q 	c #989BB6",
"r 	c #B7BED0",
"s 	c #B3BDD0",
"t 	c #B0BACE",
"u 	c #A9B4C9",
"v 	c #A2AFC5",
"w 	c #9CA9C1",
"x 	c #93A1BC",
"y 	c #8A98B4",
"z 	c #7E8BAA",
"A 	c #6F7C9D",
"B 	c #616E92",
"C 	c #49527B",
"D 	c #212258",
"E 	c #9094B0",
"F 	c #AFB8CB",
"G 	c #AEB9CD",
"H 	c #AFB9CD",
"I 	c #A8B3C9",
"J 	c #9FABC2",
"K 	c #94A1BA",
"L 	c #8794B0",
"M 	c #7D8AA8",
"N 	c #737F9F",
"O 	c #697597",
"P 	c #5A678C",
"Q 	c #414A73",
"R 	c #1D1E55",
"S 	c #868AA9",
"T 	c #A7B1C6",
"U 	c #CED5E0",
"V 	c #FBFBFC",
"W 	c #F0F0F4",
"X 	c #E6E6EC",
"Y 	c #DEDEE7",
"Z 	c #D6D6E1",
"` 	c #CFCFDB",
" .	c #C7C7D5",
"..	c #BEBECF",
"+.	c #7D84A2",
"@.	c #38406B",
"#.	c #17184F",
"$.	c #7E82A3",
"%.	c #A0AAC2",
"&.	c #C1C8D8",
"*.	c #DFDFEB",
"=.	c #D2D2E2",
"-.	c #CBCBDC",
";.	c #C4C4D7",
">.	c #BCBCD1",
",.	c #B6B6CC",
"'.	c #AFAFC6",
").	c #AAAAC2",
"!.	c #727999",
"~.	c #303964",
"{.	c #13144B",
"].	c #757A9D",
"^.	c #96A1BB",
"/.	c #B2B9CD",
"(.	c #D1D1E1",
"_.	c #C6C6D9",
":.	c #BFBFD4",
"<.	c #B8B8CF",
"[.	c #B0B0C8",
"}.	c #AAAAC3",
"|.	c #A3A3BE",
"1.	c #9E9EBA",
"2.	c #686F91",
"3.	c #29315D",
"4.	c #101148",
"5.	c #6B7095",
"6.	c #8792AF",
"7.	c #A4ABC2",
"8.	c #C4C4D8",
"9.	c #B9B9D0",
"0.	c #B2B2CA",
"a.	c #ACACC6",
"b.	c #A4A4BF",
"c.	c #9D9DBA",
"d.	c #9797B5",
"e.	c #9292B1",
"f.	c #5E6689",
"g.	c #212A55",
"h.	c #0C0D44",
"i.	c #60658D",
"j.	c #7B86A5",
"k.	c #9BA2BB",
"l.	c #C1C1D4",
"m.	c #AFAFC7",
"n.	c #A9A9C2",
"o.	c #A0A0BC",
"p.	c #9A9AB7",
"q.	c #9393B1",
"r.	c #8E8EAD",
"s.	c #575F82",
"t.	c #1B234F",
"u.	c #0A0B41",
"v.	c #656C91",
"w.	c #7E83A0",
"x.	c #A6A6B9",
"y.	c #9F9FB4",
"z.	c #9898AF",
"A.	c #9292AB",
"B.	c #8B8BA5",
"C.	c #8585A1",
"D.	c #7F7F9C",
"E.	c #787897",
"F.	c #44496E",
"G.	c #121744",
"H.	c #3A3B6A",
"I.	c #494973",
"J.	c #464671",
"K.	c #43436F",
"L.	c #40406D",
"M.	c #3C3C6A",
"N.	c #3A3A68",
"O.	c #373766",
"P.	c #343464",
"Q.	c #1D1D50",
"                                ",
"      . + @ # $ % & * = -       ",
"    ; > , ' ) ! ~ { ] ^ / (     ",
"  _ : < [ } | 1 1 1 1 1 2 3 4   ",
"  5 6 7 8 9 0 1 1 1 1 1 a b c   ",
"  d e f g h i j h k l m n o p   ",
"  q r s t u v w x y z A B C D   ",
"  E F G H I J K L M N O P Q R   ",
"  S T U V W X Y Z `  ...+.@.#.  ",
"  $.%.&.*.=.-.;.>.,.'.).!.~.{.  ",
"  ].^./.(._.:.<.[.}.|.1.2.3.4.  ",
"  5.6.7.8.9.0.a.b.c.d.e.f.g.h.  ",
"  i.j.k.l.,.m.n.o.p.q.r.s.t.u.  ",
"    v.w.x.y.z.A.B.C.D.E.F.G.    ",
"      H.I.J.K.L.M.N.O.P.Q.      ",
"                                "};
