/* XPM */
const char * fileclose_18_xpm[] = {
"18 18 138 2",
"  	c None",
". 	c #3D3D5D",
"+ 	c #40405F",
"@ 	c #3B3B5A",
"# 	c #474766",
"$ 	c #6E6E89",
"% 	c #9595A8",
"& 	c #A4A4B4",
"* 	c #A5A5B4",
"= 	c #9999AB",
"- 	c #75758E",
"; 	c #464664",
"> 	c #3C3C5C",
", 	c #515170",
"' 	c #A7A7BA",
") 	c #D0D0DC",
"! 	c #E3E3EB",
"~ 	c #EAEAEF",
"{ 	c #EAEAF0",
"] 	c #E6E6ED",
"^ 	c #D4D4DF",
"/ 	c #ADADBE",
"( 	c #585876",
"_ 	c #333351",
": 	c #4E4E6D",
"< 	c #AEAEC0",
"[ 	c #D3D3DF",
"} 	c #D8D8E3",
"| 	c #D7D7E2",
"1 	c #D6D6E1",
"2 	c #BBBBCB",
"3 	c #545472",
"4 	c #444463",
"5 	c #8B8BA5",
"6 	c #BFBFD0",
"7 	c #D5D5E0",
"8 	c #F3F3F6",
"9 	c #DADAE4",
"0 	c #C3C3D2",
"a 	c #C0C0D0",
"b 	c #C5C5D3",
"c 	c #E8E8EE",
"d 	c #ECECF1",
"e 	c #C8C8D6",
"f 	c #9797AE",
"g 	c #424261",
"h 	c #5A5A78",
"i 	c #9C9CB3",
"j 	c #B3B3C6",
"k 	c #EEEEF3",
"l 	c #FEFEFF",
"m 	c #F5F5F8",
"n 	c #CECEDB",
"o 	c #B8B8CA",
"p 	c #E4E4EB",
"q 	c #F5F5F9",
"r 	c #ADADC0",
"s 	c #83839D",
"t 	c #4D4D6B",
"u 	c #676784",
"v 	c #9393AC",
"w 	c #9898B1",
"x 	c #F0F0F4",
"y 	c #F4F4F8",
"z 	c #F4F4F7",
"A 	c #656583",
"B 	c #565676",
"C 	c #454565",
"D 	c #81819D",
"E 	c #8585A0",
"F 	c #AFAFC1",
"G 	c #A8A8BA",
"H 	c #5D5D7C",
"I 	c #525272",
"J 	c #4A4A69",
"K 	c #373755",
"L 	c #3F3F5E",
"M 	c #585877",
"N 	c #686887",
"O 	c #6B6B89",
"P 	c #8C8CA6",
"Q 	c #E0E0E8",
"R 	c #9494AA",
"S 	c #575777",
"T 	c #494968",
"U 	c #353553",
"V 	c #4B4B6B",
"W 	c #595979",
"X 	c #82829C",
"Y 	c #D9D9E2",
"Z 	c #E8E8EF",
"` 	c #9393A9",
" .	c #565675",
"..	c #2F2F4D",
"+.	c #545474",
"@.	c #696987",
"#.	c #D9D9E3",
"$.	c #AAAABC",
"%.	c #9696AC",
"&.	c #E9E9EF",
"*.	c #7F7F99",
"=.	c #535373",
"-.	c #3E3E5C",
";.	c #3C3C5A",
">.	c #555574",
",.	c #6D6D8B",
"'.	c #CCCCD9",
").	c #666684",
"!.	c #9E9EB3",
"~.	c #E1E1E9",
"{.	c #797995",
"].	c #535372",
"^.	c #6A6A88",
"/.	c #82829D",
"(.	c #9696AE",
"_.	c #787895",
":.	c #70708E",
"<.	c #737391",
"[.	c #9595AD",
"}.	c #8787A1",
"|.	c #3E3E5D",
"1.	c #6C6C89",
"2.	c #7B7B97",
"3.	c #80809C",
"4.	c #6A6A87",
"5.	c #434362",
"6.	c #292946",
"7.	c #585875",
"8.	c #686885",
"9.	c #757591",
"0.	c #747490",
"a.	c #676783",
"b.	c #555572",
"c.	c #3A3A58",
"d.	c #393958",
"e.	c #464665",
"f.	c #454563",
"g.	c #363654",
"                                    ",
"              . + + @               ",
"          # $ % & * = - ;           ",
"      > , ' ) ! ~ { ] ^ / ( _       ",
"      : < [ } | 1 1 1 | 1 2 3       ",
"    4 5 6 7 8 9 0 a b c d e f g     ",
"    h i j k l m n o p l q r s t     ",
"  . u v w 2 x l y ] l z ' A B C _   ",
"  + A D D E F x l l m G H I I J K   ",
"  L M N N O P Q l l d R S I I T U   ",
"  @ V S W X Y l m d l Z `  .I 4 ..  ",
"    4 +.@.#.l z $.%.&.l ~ *.=.-.    ",
"    ;.>.,.'.m F O ).!.d ~.{.]._     ",
"      C ^./.(._.:.:.<.[.}.@.|.      ",
"      _ T 1.2.3.3.3.3.2.4.5.6.      ",
"          L 7.8.9.0.a.b.c.          ",
"              d.e.f.g.              ",
"                                    "};
