/* XPM */
const char * fileopen_16_xpm[] = {
"16 16 183 2",
"  	c None",
". 	c #9BA1D9",
"+ 	c #ACB2E1",
"@ 	c #9097D4",
"# 	c #B0B4E2",
"$ 	c #D5D7F2",
"% 	c #E2E4F8",
"& 	c #ADB2E2",
"* 	c #3673DD",
"= 	c #77AAEE",
"- 	c #85B6F3",
"; 	c #7EB2F1",
"> 	c #639BEB",
", 	c #4B7AD9",
"' 	c #A7ADDE",
") 	c #CDCFEE",
"! 	c #EFEFFE",
"~ 	c #EEEEFE",
"{ 	c #E8E8FB",
"] 	c #E4E5F9",
"^ 	c #8089D0",
"/ 	c #4F86E2",
"( 	c #ACD9F8",
"_ 	c #BFECFF",
": 	c #B5E4FD",
"< 	c #9EBEEC",
"[ 	c #AEBEE9",
"} 	c #E4E6F7",
"| 	c #F7F7FE",
"1 	c #F3F3FF",
"2 	c #E4E4F9",
"3 	c #BBC1E9",
"4 	c #6575CA",
"5 	c #4D85E1",
"6 	c #AEDBF8",
"7 	c #B9DFF8",
"8 	c #AABFE8",
"9 	c #E1E4F7",
"0 	c #F7F8FD",
"a 	c #FEFEFF",
"b 	c #FBFBFF",
"c 	c #F4F4FF",
"d 	c #C8D1F4",
"e 	c #8AA5E8",
"f 	c #7D9CE6",
"g 	c #5579D7",
"h 	c #315DD3",
"i 	c #1B47CA",
"j 	c #4A82E1",
"k 	c #ADDAF8",
"l 	c #B3DAF7",
"m 	c #9AB2E7",
"n 	c #CADAF7",
"o 	c #CCDAF7",
"p 	c #CAD9F6",
"q 	c #C7D5F6",
"r 	c #C1CFF5",
"s 	c #B4C4F2",
"t 	c #7699E6",
"u 	c #6697ED",
"v 	c #69A1F7",
"w 	c #659DF5",
"x 	c #4A81EC",
"y 	c #2753D4",
"z 	c #467FE0",
"A 	c #ACDAF8",
"B 	c #95C7F5",
"C 	c #6E9BE7",
"D 	c #A5C0F3",
"E 	c #A9C8F6",
"F 	c #9DC2F4",
"G 	c #92B9F3",
"H 	c #83AEF2",
"I 	c #75A3F0",
"J 	c #699FF3",
"K 	c #5FA1FC",
"L 	c #418CFB",
"M 	c #3B81F6",
"N 	c #1246DA",
"O 	c #022BC5",
"P 	c #437DDF",
"Q 	c #A8D7F7",
"R 	c #79AEED",
"S 	c #A1C2F1",
"T 	c #CFE1FA",
"U 	c #D1ECFC",
"V 	c #BBE3FE",
"W 	c #9FCEFD",
"X 	c #7DB3FC",
"Y 	c #66A1FB",
"Z 	c #4E8DF9",
"` 	c #3777F3",
" .	c #2158E3",
"..	c #113BD5",
"+.	c #0322C8",
"@.	c #0023BF",
"#.	c #3F79DF",
"$.	c #94C5F3",
"%.	c #72A4EC",
"&.	c #C7E2F9",
"*.	c #C0E7FD",
"=.	c #A8D4FB",
"-.	c #91C4FF",
";.	c #72AAFD",
">.	c #508AF8",
",.	c #3472F3",
"'.	c #1752E8",
").	c #0B3EDC",
"!.	c #012ACF",
"~.	c #001CCA",
"{.	c #001CC2",
"].	c #3B76DD",
"^.	c #7FB3EE",
"/.	c #7FAAEB",
"(.	c #CCEDFE",
"_.	c #A8DEFF",
":.	c #8BC3FD",
"<.	c #7BB2FD",
"[.	c #6AA2FC",
"}.	c #4984F6",
"|.	c #2966EE",
"1.	c #0B47E4",
"2.	c #063CDD",
"3.	c #0431D4",
"4.	c #0220CB",
"5.	c #011EBE",
"6.	c #2A68DA",
"7.	c #5B92E7",
"8.	c #AAC8F4",
"9.	c #DDF4FF",
"0.	c #CFEAFF",
"a.	c #C1DDFE",
"b.	c #AFC9FA",
"c.	c #A5BFF7",
"d.	c #8CA8EF",
"e.	c #7996E9",
"f.	c #6C89E3",
"g.	c #687FDB",
"h.	c #6073D3",
"i.	c #465DCB",
"j.	c #0D2BBB",
"k.	c #1A5AD4",
"l.	c #4D80DF",
"m.	c #EBF2FD",
"n.	c #FEFFFF",
"o.	c #FCFDFF",
"p.	c #F5F6FF",
"q.	c #EBECFB",
"r.	c #E3E4F6",
"s.	c #D9DAF1",
"t.	c #D0D2EC",
"u.	c #C6C7E6",
"v.	c #BEBFE2",
"w.	c #B4B5DC",
"x.	c #7082CE",
"y.	c #0E47CC",
"z.	c #5D87DF",
"A.	c #D3DEF6",
"B.	c #D2DDF6",
"C.	c #D2DCF6",
"D.	c #CED9F5",
"E.	c #C3CEF0",
"F.	c #BAC5EA",
"G.	c #AFB9E3",
"H.	c #A5AFDD",
"I.	c #9AA5D5",
"J.	c #929CD0",
"K.	c #8994CB",
"L.	c #4159C0",
"M.	c #0741CA",
"N.	c #3266D6",
"O.	c #5B85DE",
"P.	c #5A83DE",
"Q.	c #5880DC",
"R.	c #557DDA",
"S.	c #4F76D6",
"T.	c #4970D2",
"U.	c #4368CC",
"V.	c #3D62C8",
"W.	c #365AC3",
"X.	c #3253BF",
"Y.	c #2B4DBB",
"Z.	c #1333B8",
"                                ",
"                                ",
"                  . + @         ",
"                # $ % &         ",
"* = - ; > , ' ) ! ~ { ] ^       ",
"/ ( _ : < [ } | 1 ~ { 2 3 4     ",
"5 6 7 8 9 0 a b c ~ d e f g h i ",
"j k l m n o p q r s t u v w x y ",
"z A B C D E F G H I J K L M N O ",
"P Q R S T U V W X Y Z `  ...+.@.",
"#.$.%.&.*.=.-.;.>.,.'.).!.~.{.  ",
"].^./.(._.:.<.[.}.|.1.2.3.4.5.  ",
"6.7.8.9.0.a.b.c.d.e.f.g.h.i.j.  ",
"k.l.m.n.o.p.q.r.s.t.u.v.w.x.    ",
"y.z.A.B.C.D.E.F.G.H.I.J.K.L.    ",
"M.N.O.P.Q.R.S.T.U.V.W.X.Y.Z.    "};
