/* XPM */
const char * filesaveas_16_xpm[] = {
"16 16 180 2",
"  	c None",
". 	c #F2C14C",
"+ 	c #E9B582",
"@ 	c #B8B9CC",
"# 	c #B9B9CC",
"$ 	c #A9ABC1",
"% 	c #A3A4BC",
"& 	c #A6A6BD",
"* 	c #A0A0B8",
"= 	c #9A9AB4",
"- 	c #DCB528",
"; 	c #FDD61B",
"> 	c #FECE5D",
", 	c #E8A365",
"' 	c #C4C7D6",
") 	c #DADDE7",
"! 	c #E4E6ED",
"~ 	c #7989AA",
"{ 	c #8492B0",
"] 	c #E7E8EE",
"^ 	c #EFEFF3",
"/ 	c #EDE8E4",
"( 	c #F4CE1A",
"_ 	c #FFCD05",
": 	c #FDAD19",
"< 	c #C7844E",
"[ 	c #62546F",
"} 	c #BDC0D1",
"| 	c #D7DDE6",
"1 	c #E7EAF0",
"2 	c #4F6692",
"3 	c #7E8EAE",
"4 	c #F4F6F8",
"5 	c #FFFDFA",
"6 	c #FBE29A",
"7 	c #FFDC0D",
"8 	c #FFC116",
"9 	c #F29B2B",
"0 	c #9D837D",
"a 	c #4D517D",
"b 	c #B5B9CC",
"c 	c #D1D7E2",
"d 	c #EBEEF3",
"e 	c #8D9CB8",
"f 	c #B5BED1",
"g 	c #F9FAFB",
"h 	c #FEF5E0",
"i 	c #FBE059",
"j 	c #FFD422",
"k 	c #FEB72C",
"l 	c #E69C53",
"m 	c #7E8198",
"n 	c #424674",
"o 	c #ADB1C6",
"p 	c #C5CDDB",
"q 	c #DFE4EC",
"r 	c #DCE1E9",
"s 	c #DDE2EA",
"t 	c #E0E4E9",
"u 	c #EEDEA1",
"v 	c #FDE140",
"w 	c #FFCA3A",
"x 	c #F3A942",
"y 	c #BD9984",
"z 	c #697395",
"A 	c #393C6C",
"B 	c #A5A9C0",
"C 	c #B8C1D3",
"D 	c #B2BCCF",
"E 	c #ACB7CB",
"F 	c #A6B2C8",
"G 	c #A9AEB5",
"H 	c #E0CB66",
"I 	c #FEDE4A",
"J 	c #FEC54D",
"K 	c #CD9155",
"L 	c #747286",
"M 	c #576388",
"N 	c #323666",
"O 	c #9DA2BB",
"P 	c #B1BBCF",
"Q 	c #B0BACE",
"R 	c #ABB6CB",
"S 	c #A4B0C7",
"T 	c #B6AF94",
"U 	c #F4DC5F",
"V 	c #FFDC5C",
"W 	c #F6B95F",
"X 	c #A6826D",
"Y 	c #677090",
"Z 	c #4E5A80",
"` 	c #2B2F61",
" .	c #9399B4",
"..	c #B3BDD0",
"+.	c #F1F3F6",
"@.	c #F6F6F8",
"#.	c #ECEAEA",
"$.	c #F6DE8A",
"%.	c #FFE674",
"&.	c #FFD972",
"*.	c #E5AF79",
"=.	c #C5B6B8",
"-.	c #B0B1C5",
";.	c #475279",
">.	c #212557",
",.	c #8C92AF",
"'.	c #DDDFEA",
").	c #D6D6E5",
"!.	c #D2CED5",
"~.	c #F7DA84",
"{.	c #FFE588",
"].	c #FED685",
"^.	c #C09783",
"/.	c #A4A0B6",
"(.	c #9798B2",
"_.	c #3B466E",
":.	c #1C1F51",
"<.	c #838AA9",
"[.	c #9EA9C1",
"}.	c #CFD0DF",
"|.	c #C9C9DC",
"1.	c #C8BFC4",
"2.	c #F4D5A9",
"3.	c #FCE5B7",
"4.	c #E4B686",
"5.	c #9C8E9F",
"6.	c #9090AE",
"7.	c #898AA7",
"8.	c #333D66",
"9.	c #171A4D",
"0.	c #767EA0",
"a.	c #8E9AB4",
"b.	c #C2C4D5",
"c.	c #BCBCD2",
"d.	c #BBADB2",
"e.	c #D6B9A4",
"f.	c #D2B4A4",
"g.	c #A39099",
"h.	c #8A8AAA",
"i.	c #8585A5",
"j.	c #7F80A0",
"k.	c #2C365F",
"l.	c #131649",
"m.	c #6B7297",
"n.	c #838EAB",
"o.	c #BBBDD0",
"p.	c #BABACF",
"q.	c #B5A5AD",
"r.	c #AD8477",
"s.	c #9F8E9B",
"t.	c #908EAA",
"u.	c #8888A7",
"v.	c #8585A4",
"w.	c #8081A0",
"x.	c #28325B",
"y.	c #101446",
"z.	c #5B6088",
"A.	c #697093",
"B.	c #9D9FB4",
"C.	c #A2A2B7",
"D.	c #9C96A9",
"E.	c #928899",
"F.	c #8A89A3",
"G.	c #84849F",
"H.	c #7D7D9A",
"I.	c #7A7A98",
"J.	c #6E6F8F",
"K.	c #1B224C",
"L.	c #0A0D40",
"M.	c #343567",
"N.	c #454671",
"O.	c #474772",
"P.	c #444470",
"Q.	c #41416E",
"R.	c #3E3E6C",
"S.	c #3C3C6A",
"T.	c #383867",
"U.	c #363665",
"V.	c #303060",
"W.	c #0A0B41",
"                  . +           ",
"  @ # $ % & * = - ; > ,         ",
"' ) ! ~ { ] ^ / ( _ : < [       ",
"} | 1 2 3 4 5 6 7 8 9 0 a       ",
"b c d e f g h i j k l m n       ",
"o p q r s t u v w x y z A       ",
"B C D E F G H I J K L M N       ",
"O P Q R S T U V W X Y Z `       ",
" ...+.@.#.$.%.&.*.=.-.;.>.      ",
",.R '.).!.~.{.].^./.(._.:.      ",
"<.[.}.|.1.2.3.4.5.6.7.8.9.      ",
"0.a.b.c.d.e.f.g.h.i.j.k.l.      ",
"m.n.o.p.q.r.s.t.u.v.w.x.y.      ",
"z.A.B.C.D.E.F.G.H.I.J.K.L.      ",
"  M.N.O.P.Q.R.S.T.U.V.W.        ",
"                                "};
