/* XPM */
const char * goto_18_xpm[] = {
"18 18 82 1",
" 	c None",
".	c #127DFF",
"+	c #1382FF",
"@	c #5499E4",
"#	c #579ADF",
"$	c #1868FA",
"%	c #3C7CEF",
"&	c #97B5E6",
"*	c #C6DBFA",
"=	c #DAE8FD",
"-	c #DAE8FC",
";	c #CBDEFB",
">	c #89ACE6",
",	c #3B7AEC",
"'	c #1565F7",
")	c #5C8ADF",
"!	c #91B3F3",
"~	c #8EB6FF",
"{	c #91B7FD",
"]	c #A2C0F6",
"^	c #B2CBF9",
"/	c #B9D1FF",
"(	c #9DBAEF",
"_	c #3B7BF0",
":	c #0059FA",
"<	c #1B66F0",
"[	c #3D77E3",
"}	c #266BEA",
"|	c #005AFE",
"1	c #0A5EF8",
"2	c #3876E6",
"3	c #4E87EE",
"4	c #7AA5F5",
"5	c #8CB5FF",
"6	c #719DEF",
"7	c #1465F8",
"8	c #0056F3",
"9	c #0057F6",
"0	c #256CEF",
"a	c #4E8BFB",
"b	c #6199FF",
"c	c #6198FE",
"d	c #2A73F8",
"e	c #0054EF",
"f	c #0256EF",
"g	c #1766F5",
"h	c #3E82FF",
"i	c #4889FF",
"j	c #327AFD",
"k	c #0052E8",
"l	c #0055F0",
"m	c #085FFE",
"n	c #1366FE",
"o	c #3179FF",
"p	c #3C80FF",
"q	c #387EFF",
"r	c #0D62FF",
"s	c #075FFE",
"t	c #0257F3",
"u	c #0052E9",
"v	c #0051E7",
"w	c #1D6AF6",
"x	c #317AFF",
"y	c #347CFF",
"z	c #1E6CFA",
"A	c #0757EB",
"B	c #0453E3",
"C	c #1664F4",
"D	c #2773FF",
"E	c #2B75FF",
"F	c #2974FF",
"G	c #1666FA",
"H	c #0655E6",
"I	c #0351E0",
"J	c #1060F3",
"K	c #206EFF",
"L	c #0F63FC",
"M	c #0351E1",
"N	c #014FDD",
"O	c #0357F0",
"P	c #014FDE",
"Q	c #004CD8",
"                  ",
"                  ",
"                  ",
"     .+@#+        ",
"   $%&*=-;>,      ",
"  ')!~{]^//(_     ",
" :<[}|12345567    ",
"89       0abcd    ",
"e        fghije   ",
"       klmnopqrstu",
"        vwxyyyxzA ",
"         BCDEFGH  ",
"          IJKLM   ",
"           NOP    ",
"            Q     ",
"                  ",
"                  ",
"                  "};
