/* XPM */
const char* const i_frame_18_xpm[] = { 
"18 18 9 1",
". c None",
"d c #000096",
"e c #0f0f9c",
"c c #2f2fa9",
"a c #3f3fb0",
"# c #6f6fc4",
"g c #7f7fca",
"b c #9f9fd7",
"f c #bfbfe5",
"..................",
"..................",
"......#aaaab......",
"......#cdeab......",
".......fda........",
".......fda........",
".......fda........",
".......fda........",
".......fda........",
".......fda........",
".......fda........",
".......fda........",
".......fda........",
".......fda........",
"......addddg......",
"......bggggf......",
"..................",
".................."};
