/* XPM */
const char * next_18_xpm[] = {
"18 18 59 1",
" 	c None",
".	c #000000",
"+	c #1E1E1E",
"@	c #111111",
"#	c #BFBFBF",
"$	c #2B2A2A",
"%	c #80807F",
"&	c #4B4B4A",
"*	c #5B5A5A",
"=	c #403F3F",
"-	c #949392",
";	c #585857",
">	c #605F5E",
",	c #969593",
"'	c #575655",
")	c #101010",
"!	c #A3A2A1",
"~	c #616160",
"{	c #636261",
"]	c #A4A3A1",
"^	c #AAA9A7",
"/	c #676664",
"(	c #ADACAB",
"_	c #666665",
":	c #666564",
"<	c #A9A8A5",
"[	c #B8B7B4",
"}	c #B7B5B2",
"|	c #737371",
"1	c #5B5B5B",
"2	c #262626",
"3	c #6A6967",
"4	c #B1B0AD",
"5	c #C4C2BF",
"6	c #A7A6A4",
"7	c #666666",
"8	c #C1C1C1",
"9	c #AFAEAD",
"0	c #686767",
"a	c #70706E",
"b	c #BDBBB9",
"c	c #9C9C9A",
"d	c #7A7A79",
"e	c #BBBBB8",
"f	c #696968",
"g	c #787775",
"h	c #A09F9D",
"i	c #7B7A7A",
"j	c #C1C0BE",
"k	c #6B6A69",
"l	c #5E5D5C",
"m	c #C2C1BF",
"n	c #6D6D6C",
"o	c #606060",
"p	c #61615F",
"q	c #383737",
"r	c #989898",
"s	c #B9B9B9",
"t	c #EAEAEA",
"                  ",
"                  ",
"                  ",
"    ..     .+@#   ",
"    .$     .%&#   ",
"    .*=    .-;#   ",
"    .>,')  .!~#   ",
"    .{]^/  .(_#   ",
"    .:<[}|12(_#   ",
"    .345678.90#   ",
"    .abcd  .ef#   ",
"    .ghi   .jk#   ",
"    .l7    .mn#   ",
"    .o     .pq#   ",
"    r      s##t   ",
"                  ",
"                  ",
"                  "};
