/* XPM */
const char * note_18_xpm[] = {
"18 18 93 2",
"  	c None",
". 	c #C5AD09",
"+ 	c #CBB406",
"@ 	c #CAB202",
"# 	c #C7AF01",
"$ 	c #C3AB01",
"% 	c #BFA702",
"& 	c #B59A00",
"* 	c #C5AD00",
"= 	c #C6AE00",
"- 	c #C4AC00",
"; 	c #C3AA00",
"> 	c #AF9906",
", 	c #CFBD06",
"' 	c #AC9300",
") 	c #A68A00",
"! 	c #B59C00",
"~ 	c #9E8A00",
"{ 	c #A99400",
"] 	c #827100",
"^ 	c #988500",
"/ 	c #A28802",
"( 	c #A28600",
"_ 	c #967E00",
": 	c #907D00",
"< 	c #7C6E00",
"[ 	c #958300",
"} 	c #9A8700",
"| 	c #B49E00",
"1 	c #B09C06",
"2 	c #AD9A04",
"3 	c #8D7B00",
"4 	c #746600",
"5 	c #928200",
"6 	c #A69600",
"7 	c #9E8E00",
"8 	c #AE9C00",
"9 	c #C7B200",
"0 	c #CEB701",
"a 	c #C4B80A",
"b 	c #BAAB00",
"c 	c #D2C100",
"d 	c #CFC000",
"e 	c #DECD00",
"f 	c #DDCB00",
"g 	c #DBC800",
"h 	c #D8C500",
"i 	c #D5C100",
"j 	c #C5B104",
"k 	c #B5B00C",
"l 	c #EAE200",
"m 	c #E8DD00",
"n 	c #E6DB00",
"o 	c #E5DA00",
"p 	c #E4D800",
"q 	c #E2D300",
"r 	c #DFCE00",
"s 	c #DCCA00",
"t 	c #D8C400",
"u 	c #9D8E07",
"v 	c #F2EE02",
"w 	c #F0EA00",
"x 	c #EDE500",
"y 	c #ECE300",
"z 	c #EAE000",
"A 	c #E7DC00",
"B 	c #E3D600",
"C 	c #E0D000",
"D 	c #D9C801",
"E 	c #938608",
"F 	c #E7E705",
"G 	c #F6F500",
"H 	c #F4F000",
"I 	c #F1EC00",
"J 	c #EEE700",
"K 	c #EBE200",
"L 	c #DED302",
"M 	c #A09603",
"N 	c #2F2C04",
"O 	c #040401",
"P 	c #C9CA0B",
"Q 	c #F9FA00",
"R 	c #F8F800",
"S 	c #F3F101",
"T 	c #DAD502",
"U 	c #908B05",
"V 	c #2C2A03",
"W 	c #020200",
"X 	c #F0F104",
"Y 	c #BCBD06",
"Z 	c #666606",
"` 	c #111103",
" .	c #050501",
"                                    ",
"                                    ",
"                                    ",
"                                    ",
"            . + @ # $               ",
"          % & * = - ; >             ",
"        , ' ) ! ~ { ] ^             ",
"        / ( _ : < [ } | 1           ",
"        2 3 4 5 6 7 8 9 0           ",
"        a b c d e f g h i j         ",
"        k l m n o p q r s t u       ",
"          v w x y z A B C D E       ",
"          F G H I J K L M N O       ",
"          P Q R S T U V W           ",
"            X Y Z ` O               ",
"               .                    ",
"                                    ",
"                                    "};
