/* XPM */
const char * pause_18_xpm[] = {
"18 18 67 1",
" 	c None",
".	c #000000",
"+	c #2B2B2B",
"@	c #424242",
"#	c #222222",
"$	c #BFBFBF",
"%	c #0E0E0E",
"&	c #3E3E3D",
"*	c #434343",
"=	c #404040",
"-	c #FFFFFF",
";	c #5C5C5C",
">	c #9E9E9D",
",	c #4E4E4E",
"'	c #1F1F1F",
")	c #8D8D8C",
"!	c #9D9D9C",
"~	c #60605F",
"{	c #ABAAA9",
"]	c #5C5B5B",
"^	c #202020",
"/	c #939392",
"(	c #B4B3B2",
"_	c #686866",
":	c #B3B2B0",
"<	c #626261",
"[	c #232222",
"}	c #9C9B99",
"|	c #BFBEBD",
"1	c #6D6C6A",
"2	c #B6B5B3",
"3	c #656564",
"4	c #242424",
"5	c #A09F9D",
"6	c #C3C3C1",
"7	c #71706E",
"8	c #B9B8B6",
"9	c #666665",
"0	c #262525",
"a	c #A4A3A1",
"b	c #C6C5C4",
"c	c #7C7C79",
"d	c #C1C0BE",
"e	c #6A6A69",
"f	c #2A2929",
"g	c #B0B0AC",
"h	c #CECDCB",
"i	c #81807D",
"j	c #C4C2C0",
"k	c #6B6A69",
"l	c #2B2B2A",
"m	c #B5B4B0",
"n	c #D0CECC",
"o	c #868582",
"p	c #CBCAC7",
"q	c #6D6D6C",
"r	c #2D2C2B",
"s	c #BDBBB8",
"t	c #D5D4D2",
"u	c #444342",
"v	c #6A6968",
"w	c #383737",
"x	c #171616",
"y	c #62615F",
"z	c #AFAFAF",
"A	c #E5E5E5",
"B	c #CBCBCB",
"                  ",
"                  ",
"                  ",
"                  ",
"    .+@#$%&*=-    ",
"    .;>,$')!=-    ",
"    .~{]$^/(=-    ",
"    ._:<$[}|=-    ",
"    .123$456=-    ",
"    .789$0ab=-    ",
"    .cde$fgh=-    ",
"    .ijk$lmn=-    ",
"    .opq$rst=-    ",
"    .uvw$xyq=-    ",
"    z$$$A$$$B     ",
"                  ",
"                  ",
"                  "};
