/* XPM */
const char* const p_frame_18_xpm[] = { 
"18 18 15 1",
". c None",
"e c #fa0150",
"f c #fa105a",
"h c #fb2065",
"a c #fb407b",
"g c #fc5086",
"l c #fc6091",
"k c #fc709c",
"b c #fc80a7",
"m c #fd8fb2",
"j c #fd9fbd",
"d c #febfd3",
"# c #fecfde",
"c c #fedfe9",
"i c #ffeff4",
"..................",
"..................",
".....#aaaaabc.....",
".....deeeeeef#....",
".....dea..cgeh....",
".....dea...ieei...",
".....dea....ee#...",
".....dea...#ee....",
".....deaidjfek....",
".....deeeeeeli....",
".....defakm#......",
".....dea..........",
".....dea..........",
".....dea..........",
".....dea..........",
".....cbj..........",
"..................",
".................."};
