/* XPM */
const char * play_18_xpm[] = {
"18 18 38 1",
" 	c None",
".	c #000000",
"+	c #1C1C1C",
"@	c #141414",
"#	c #3C3C3C",
"$	c #5B5A59",
"%	c #403F3F",
"&	c #939391",
"*	c #706F6E",
"=	c #1A1A19",
"-	c #424241",
";	c #989795",
">	c #AEADAB",
",	c #7B7A78",
"'	c #1D1D1D",
")	c #444443",
"!	c #9D9C9A",
"~	c #B8B6B4",
"{	c #B8B6B3",
"]	c #9B9A98",
"^	c #3D3D3D",
"/	c #464645",
"(	c #A4A3A0",
"_	c #C2C0BD",
":	c #B2B1AE",
"<	c #575656",
"[	c #FFFFFF",
"}	c #4B4A4A",
"|	c #AFADAB",
"1	c #B6B5B3",
"2	c #747473",
"3	c #CCCCCC",
"4	c #504F4E",
"5	c #BBB9B7",
"6	c #585858",
"7	c #3F3E3D",
"8	c #4F4F4E",
"9	c #404040",
"                  ",
"                  ",
"                  ",
"      ..          ",
"      .+@         ",
"      .#$.        ",
"      .%&*=       ",
"      .-;>,'      ",
"      .)!~{]^     ",
"      ./(_:<[     ",
"      .}|123      ",
"      .4563       ",
"      .78[        ",
"      .93         ",
"       3          ",
"                  ",
"                  ",
"                  "};
