/* XPM */
const char * prev_18_xpm[] = {
"18 18 64 1",
" 	c None",
".	c #0E0E0E",
"+	c #212120",
"@	c #404040",
"#	c #FFFFFF",
"$	c #000000",
"%	c #6C6C6C",
"&	c #3C3C3C",
"*	c #8F8F8E",
"=	c #272727",
"-	c #737373",
";	c #454544",
">	c #A7A6A5",
",	c #363535",
"'	c #6B6B6A",
")	c #4C4B4B",
"!	c #B8B7B6",
"~	c #0C0C0C",
"{	c #464544",
"]	c #91908E",
"^	c #969695",
"/	c #515150",
"(	c #C2C1C0",
"_	c #D4D4D4",
":	c #454443",
"<	c #B9B8B6",
"[	c #9E9E9D",
"}	c #525151",
"|	c #C1C1BF",
"1	c #8A8A8A",
"2	c #444444",
"3	c #8A8885",
"4	c #B3B2AF",
"5	c #C1C0BD",
"6	c #9F9E9D",
"7	c #525251",
"8	c #C6C4C3",
"9	c #F0F0F0",
"0	c #2F2F2F",
"a	c #848382",
"b	c #B0AFAC",
"c	c #C5C4C2",
"d	c #9F9E9E",
"e	c #5A5958",
"f	c #CBCAC8",
"g	c #484847",
"h	c #81807E",
"i	c #CAC9C7",
"j	c #A3A3A2",
"k	c #5D5D5B",
"l	c #CFCECC",
"m	c #5A5A59",
"n	c #A1A19F",
"o	c #A7A7A6",
"p	c #5D5C5B",
"q	c #D2D1CF",
"r	c #3E3E3E",
"s	c #777776",
"t	c #2E2E2D",
"u	c #6A6A69",
"v	c #3D3D3D",
"w	c #727272",
"x	c #BFBFBF",
"y	c #CBCBCB",
"                  ",
"                  ",
"                  ",
"    .+@#    $%    ",
"    &*@#   $=-    ",
"    ;>@#  $,'-    ",
"    )!@# ~{]^-    ",
"    /(@_$:]<[-    ",
"    }|@123456-    ",
"    78@90abcd-    ",
"    ef@# ghij-    ",
"    kl@#  mno-    ",
"   $pq@#   rs-    ",
"    tu@#    vw    ",
"    xxy           ",
"                  ",
"                  ",
"                  "};
