/* XPM */
const char * preview_18_xpm[] = {
"18 18 134 2",
"  	c None",
". 	c #A9ACB6",
"+ 	c #A9AFB9",
"@ 	c #ACB2BA",
"# 	c #AEB3BA",
"$ 	c #AFB3BA",
"% 	c #ADB0B8",
"& 	c #A1A7B1",
"* 	c #ABB4BC",
"= 	c #B6C0C7",
"- 	c #BEC8CD",
"; 	c #BDC7CC",
"> 	c #B9C1C7",
", 	c #AEB3B8",
"' 	c #9AA0AB",
") 	c #AEB7BE",
"! 	c #BFC9CE",
"~ 	c #C9D3D5",
"{ 	c #CCD5D8",
"] 	c #C7D1D4",
"^ 	c #C3CCD1",
"/ 	c #C7D1D5",
"( 	c #C4CCD0",
"_ 	c #ACB0B6",
": 	c #8C8F9D",
"< 	c #A5ADB6",
"[ 	c #D0D9DC",
"} 	c #DCE5E5",
"| 	c #DBE2E3",
"1 	c #D1DADC",
"2 	c #CDD6D9",
"3 	c #D0DADC",
"4 	c #C0C7CA",
"5 	c #9EA1A8",
"6 	c #888D99",
"7 	c #B4BFC5",
"8 	c #DCE4E5",
"9 	c #ECF1F1",
"0 	c #E6EBEC",
"a 	c #D5DDDF",
"b 	c #D9E1E2",
"c 	c #D8E1E2",
"d 	c #D9E2E3",
"e 	c #D4DCDC",
"f 	c #A9AEB1",
"g 	c #8A9098",
"h 	c #BBC5CB",
"i 	c #C8D2D5",
"j 	c #D7DFE1",
"k 	c #DDE4E5",
"l 	c #DEE6E7",
"m 	c #E3EAEA",
"n 	c #E1E9E9",
"o 	c #ADB1B4",
"p 	c #898F97",
"q 	c #C5CFD2",
"r 	c #CAD3D7",
"s 	c #D1D9DC",
"t 	c #DCE3E4",
"u 	c #E7ECEC",
"v 	c #E8EDED",
"w 	c #EAEFEF",
"x 	c #E9EEEE",
"y 	c #ACAFB1",
"z 	c #797E89",
"A 	c #C2CCD0",
"B 	c #CAD3D6",
"C 	c #D4DDDE",
"D 	c #E0E7E7",
"E 	c #E5ECEC",
"F 	c #EEF3F3",
"G 	c #F2F4F4",
"H 	c #E8ECEC",
"I 	c #A5A7AB",
"J 	c #666879",
"K 	c #ACB5BA",
"L 	c #C6D0D4",
"M 	c #D3DCDE",
"N 	c #DEE6E6",
"O 	c #F4F7F7",
"P 	c #F9FAFA",
"Q 	c #D4D6D7",
"R 	c #88898F",
"S 	c #7C828D",
"T 	c #BEC7CC",
"U 	c #CBD4D7",
"V 	c #D2DCDE",
"W 	c #EBEBEC",
"X 	c #A0A0A6",
"Y 	c #656574",
"Z 	c #8B929B",
"` 	c #BAC2C5",
" .	c #D1DBDD",
"..	c #D9DDDD",
"+.	c #A0A1A7",
"@.	c #7D7D8B",
"#.	c #8F8B9A",
"$.	c #7A7E8A",
"%.	c #949BA2",
"&.	c #A0A5A8",
"*.	c #A3A8AA",
"=.	c #A0A4A9",
"-.	c #8C8E97",
";.	c #6C6C7B",
">.	c #8B8797",
",.	c #9D8372",
"'.	c #C58737",
").	c #C67816",
"!.	c #BB8E4F",
"~.	c #EAC16F",
"{.	c #E29C32",
"].	c #BB6E13",
"^.	c #AC742D",
"/.	c #E4C478",
"(.	c #F5D07E",
"_.	c #E09A31",
":.	c #B26915",
"<.	c #9D6828",
"[.	c #E0C27A",
"}.	c #F5D07C",
"|.	c #DE9A35",
"1.	c #A96316",
"2.	c #986831",
"3.	c #DBBB76",
"4.	c #F5CE78",
"5.	c #D89634",
"6.	c #7F491C",
"7.	c #986C39",
"8.	c #D5B571",
"9.	c #C09554",
"0.	c #795D51",
"a.	c #784C27",
"b.	c #765D53",
"c.	c #5B566D",
"      . + @ # $ %                   ",
"    & * = - - ; > ,                 ",
"  ' ) ! ~ { ] ^ / ( _               ",
": < - [ } | 1 2 { 3 4 5             ",
"6 7 / 8 9 0 a b c d e f             ",
"g h i j 0 k l m n m n o             ",
"p ; q r s t u u v w x y             ",
"z ; A B C D E x F G H I             ",
"J K A L M N E 9 O P Q R             ",
"  S T U V N E 9 O W X Y             ",
"    Z `  .8 m x ..+.@.#.            ",
"      $.%.&.*.=.-.;.>.,.'.).        ",
"                      !.~.{.].      ",
"                      ^./.(._.:.    ",
"                        <.[.}.|.1.  ",
"                          2.3.4.5.6.",
"                            7.8.9.0.",
"                              a.b.c."};
