/* XPM */
const char * saveimage_16_xpm[] = {
"17 18 80 1",
" 	c None",
".	c #000000",
"+	c #FFFFFF",
"@	c #134363",
"#	c #235578",
"$	c #215478",
"%	c #25587C",
"&	c #346C93",
"*	c #41769C",
"=	c #6C9CBB",
"-	c #427497",
";	c #395D76",
">	c #15476E",
",	c #4B8EC1",
"'	c #4681AF",
")	c #4D8FC0",
"!	c #8BB5D6",
"~	c #F1F6FC",
"{	c #8CB5D5",
"]	c #5D8FB6",
"^	c #2C5677",
"/	c #E0EAF1",
"(	c #CBD4DE",
"_	c #27669B",
":	c #3979AF",
"<	c #B1CDE3",
"[	c #71A3CC",
"}	c #4D85B4",
"|	c #040B11",
"1	c #98938E",
"2	c #B5AFAA",
"3	c #C3D5E3",
"4	c #93B4CE",
"5	c #6F96B8",
"6	c #629DD1",
"7	c #6CA6D9",
"8	c #468BC7",
"9	c #417BAC",
"0	c #0B0B0B",
"a	c #212121",
"b	c #3C3A39",
"c	c #646363",
"d	c #4F4E4D",
"e	c #161311",
"f	c #5C5753",
"g	c #E1DAD3",
"h	c #4C667F",
"i	c #73A2CD",
"j	c #5E85AA",
"k	c #546F89",
"l	c #3B383D",
"m	c #010003",
"n	c #343335",
"o	c #434244",
"p	c #7C7A7D",
"q	c #322C31",
"r	c #20141C",
"s	c #1D182D",
"t	c #11040F",
"u	c #242424",
"v	c #144001",
"w	c #2C3228",
"x	c #3E3940",
"y	c #413B44",
"z	c #292E27",
"A	c #000400",
"B	c #185700",
"C	c #2D780B",
"D	c #227900",
"E	c #245E0B",
"F	c #185F00",
"G	c #147C00",
"H	c #014100",
"I	c #002F00",
"J	c #0A6000",
"K	c #167C00",
"L	c #1E8F00",
"M	c #3A9F0D",
"N	c #1F8E00",
"O	c #2F7C0D",
"                 ",
"..     ..     .. ",
"..+.+.+..+.+.+.. ",
" .++++++++++++.  ",
" ++@@#$%&*=-;++  ",
" .+>,')))!~{]+.  ",
" ++^/(_:))<[}++  ",
"..+|123456789+0. ",
"a.+bcdefghijk+.. ",
" .+lmnopqrstu+.  ",
" ++vwxyzABCDE++  ",
" .+FGHIJKLMNO+.  ",
" ++++++++++++++  ",
"..+.+.+..+.+.+.. ",
"..     ..     .. ",
"                 ",
"                 ",
"                 "};
