/* XPM */
const char * search_18_xpm[] = {
"18 18 126 2",
"  	c None",
". 	c #000000",
"+ 	c #2E2E2E",
"@ 	c #222222",
"# 	c #B5B5B5",
"$ 	c #898989",
"% 	c #E1E1E1",
"& 	c #5D5D5D",
"* 	c #989898",
"= 	c #A6A6A6",
"- 	c #D3D3D3",
"; 	c #7A7A7A",
"> 	c #333333",
", 	c #D9D9D9",
"' 	c #B9B9B9",
") 	c #CCCCCC",
"! 	c #CACACA",
"~ 	c #4D4D4D",
"{ 	c #9A9A9A",
"] 	c #A4A4A4",
"^ 	c #BBBAB9",
"/ 	c #ABABAB",
"( 	c #E7E7E7",
"_ 	c #EDEDED",
": 	c #E4E6E5",
"< 	c #D9DEDB",
"[ 	c #E1E4E1",
"} 	c #E6E3E1",
"| 	c #C5C1BE",
"1 	c #EAEAEA",
"2 	c #EFF3F0",
"3 	c #7B9A85",
"4 	c #457053",
"5 	c #587E64",
"6 	c #4F775B",
"7 	c #5D8368",
"8 	c #E0E6E2",
"9 	c #FCFAF8",
"0 	c #F4EDE9",
"a 	c #C3BEBA",
"b 	c #DEE6E0",
"c 	c #598065",
"d 	c #678971",
"e 	c #D8DDDA",
"f 	c #C9D2CC",
"g 	c #245834",
"h 	c #90A695",
"i 	c #F4EFEA",
"j 	c #F1E8E0",
"k 	c #C2BCB6",
"l 	c #FEFEFE",
"m 	c #D7DFD9",
"n 	c #A2B5A8",
"o 	c #DDE0DE",
"p 	c #63886E",
"q 	c #4F7659",
"r 	c #BFC3BA",
"s 	c #EEE5DE",
"t 	c #EFE3D8",
"u 	c #C1B9B2",
"v 	c #8B8B8B",
"w 	c #FFFFFF",
"x 	c #F8F8F8",
"y 	c #678A72",
"z 	c #406C4D",
"A 	c #C9CCC4",
"B 	c #E5DDD7",
"C 	c #F2E6DC",
"D 	c #EDDED0",
"E 	c #C0B6AD",
"F 	c #DCE3DE",
"G 	c #C9CDC5",
"H 	c #E7DFD9",
"I 	c #F2E7DC",
"J 	c #F4E4D7",
"K 	c #EBD7C7",
"L 	c #BFB3A9",
"M 	c #FFFEFE",
"N 	c #4C7659",
"O 	c #487051",
"P 	c #ECE1D7",
"Q 	c #F3E4D7",
"R 	c #F2DFCF",
"S 	c #E4CEBB",
"T 	c #BEB0A4",
"U 	c #FFFFFE",
"V 	c #FDFBF9",
"W 	c #A8B8A7",
"X 	c #97A591",
"Y 	c #E3D5C9",
"Z 	c #F1DECF",
"` 	c #EDD7C4",
" .	c #D7BFAB",
"..	c #BCADA0",
"+.	c #C0C0C0",
"@.	c #C2C2C2",
"#.	c #C7C7C7",
"$.	c #C5C5C4",
"%.	c #C4C0BC",
"&.	c #C0B9B3",
"*.	c #B5ACA3",
"=.	c #B7A99D",
"-.	c #BAAA9C",
";.	c #B8A493",
">.	c #B09A87",
",.	c #BBAB9C",
"'.	c #DFDFDF",
").	c #050505",
"!.	c #636363",
"~.	c #EEEEEE",
"{.	c #E6E6E6",
"].	c #F4F4F4",
"^.	c #E0E0E0",
"/.	c #E0E0DF",
"(.	c #E0DFDE",
"_.	c #E8E7E6",
":.	c #EAE9E8",
"<.	c #F1EFED",
"[.	c #E4E2E0",
"}.	c #F2F1F0",
"|.	c #090909",
"1.	c #777777",
"2.	c #464646",
"3.	c #D1D1D1",
"4.	c #747474",
"5.	c #A8A8A8",
". . +         . . .           . .   ",
". @ # $ % $ # & & & * = - ; - > .   ",
"+ # , ' ' ' ' ' ' ' ' ' ' ' ) ! ~   ",
"  $ ' { ] ] ] ] ] ] ] ] ] ] ^ /     ",
"  % ' ] ( _ : < < < [ _ _ } | 1     ",
"  $ ' ] _ 2 3 4 5 6 7 8 9 0 a /     ",
"+ # ' ] _ b c d e f g h i j k ! ~   ",
". & ' ] _ l m n o p q r s t u v .   ",
". & ' ] _ w l x y z A B C D E v .   ",
"  % ' ] _ w w w F G H I J K L 1     ",
"  * ' ] _ w w M N O P Q R S T #     ",
"  = ' ] _ w U V W X Y Z `  ...+.    ",
"  - ' ] @.#.$.%.&.*.=.-.;.>.,.'.    ",
").!.~.{.].( _ ^./.(._.:.<.[.}.$ |.  ",
". . 1.2.3.2.v . . . & 4.' + 5.. .   ",
". .             .             . .   ",
"                                    ",
"                                    "};
