/* XPM */
const char * settings_16_xpm[] = {
"16 16 102 2",
"  	c None",
". 	c #C1C1CE",
"+ 	c #D6D6DE",
"@ 	c #DBDBE3",
"# 	c #D1D1DB",
"$ 	c #F5F5F7",
"% 	c #F9F9FB",
"& 	c #E3E3E9",
"* 	c #BEBECB",
"= 	c #D8D8E0",
"- 	c #FDFDFE",
"; 	c #D8D8E1",
"> 	c #9D9DB1",
", 	c #C2C2CE",
"' 	c #EBEBEF",
") 	c #FCFCFD",
"! 	c #EBEBF0",
"~ 	c #B8B8C6",
"{ 	c #AAAABB",
"] 	c #BABAC7",
"^ 	c #B3B3C2",
"/ 	c #F0F0F4",
"( 	c #F6F6F8",
"_ 	c #EAEAEE",
": 	c #BABAC8",
"< 	c #AEAEBF",
"[ 	c #B2B2C2",
"} 	c #A6A6B9",
"| 	c #CDCDD7",
"1 	c #E7E7EC",
"2 	c #EDEDF2",
"3 	c #DEDEE5",
"4 	c #A8A8BA",
"5 	c #D7D7DF",
"6 	c #D3D3DC",
"7 	c #DFDFE5",
"8 	c #E5E5EA",
"9 	c #E6E6EB",
"0 	c #E4E4EA",
"a 	c #CDCDD8",
"b 	c #A2A0AF",
"c 	c #AFAFBF",
"d 	c #D9D9E1",
"e 	c #DDDDE4",
"f 	c #DDDDE5",
"g 	c #DCDCE4",
"h 	c #C0BFCA",
"i 	c #C3B19B",
"j 	c #D2A046",
"k 	c #9898AD",
"l 	c #C0C0CC",
"m 	c #C3C3CE",
"n 	c #C9C8D0",
"o 	c #CEB79B",
"p 	c #D99C3A",
"q 	c #E79A1A",
"r 	c #E3A123",
"s 	c #71718E",
"t 	c #7D7D97",
"u 	c #7A7A94",
"v 	c #908DA1",
"w 	c #C1B09F",
"x 	c #D9A03D",
"y 	c #EE9D19",
"z 	c #F99D12",
"A 	c #F3A319",
"B 	c #E2A124",
"C 	c #BB8A44",
"D 	c #EBA820",
"E 	c #FCB11D",
"F 	c #FFB21D",
"G 	c #FDB11D",
"H 	c #F3AF20",
"I 	c #E0A225",
"J 	c #DC9F25",
"K 	c #F7BB27",
"L 	c #FFC428",
"M 	c #FFBE24",
"N 	c #FDB31E",
"O 	c #F6AB1D",
"P 	c #DD9A23",
"Q 	c #D8A229",
"R 	c #F4BF2B",
"S 	c #FEB921",
"T 	c #FFA414",
"U 	c #FF9D10",
"V 	c #F7A218",
"W 	c #C38223",
"X 	c #D49826",
"Y 	c #F3A71D",
"Z 	c #FEA414",
"` 	c #FF9B0E",
" .	c #FE9F11",
"..	c #C37F20",
"+.	c #CF851C",
"@.	c #F39D16",
"#.	c #FE9E11",
"$.	c #E78E14",
"%.	c #B06F21",
"&.	c #AE6A1F",
"*.	c #B56E1D",
"=.	c #A86620",
"      . + @ #                   ",
"        @ $ % & *               ",
"          = $ - ;               ",
">         , ' ) ! ~             ",
"{ ]     ^ + / ( _ :             ",
"< = [ } | 1 2 2 3 4             ",
"> 5 6 | 7 8 9 0 a b             ",
"  c d @ e f g | h i j           ",
"    k ~ . l m n o p q r         ",
"      s t u v w x y z A B       ",
"              C D E F G H I     ",
"                J K L M N O P   ",
"                  Q R S T U V W ",
"                    X Y Z `  ...",
"                      +.@.#.$.%.",
"                        &.*.=.  "};
