/* XPM */
const char * stop_18_xpm[] = {
"18 18 39 1",
" 	c None",
".	c #1D1D1C",
"+	c #40403F",
"@	c #444443",
"#	c #333333",
"$	c #808080",
"%	c #3E3E3D",
"&	c #969594",
"*	c #9D9D9C",
"=	c #767675",
"-	c #9D9C9B",
";	c #B8B7B6",
">	c #8A8988",
",	c #464544",
"'	c #A4A3A1",
")	c #C5C4C3",
"!	c #949392",
"~	c #484847",
"{	c #A8A6A4",
"]	c #CACAC8",
"^	c #989896",
"/	c #535251",
"(	c #B6B5B2",
"_	c #D4D3D2",
":	c #9F9E9E",
"<	c #555453",
"[	c #B8B7B4",
"}	c #D5D4D2",
"|	c #A09F9E",
"1	c #585856",
"2	c #BEBCB9",
"3	c #D8D7D5",
"4	c #A2A1A0",
"5	c #444342",
"6	c #989694",
"7	c #A7A6A4",
"8	c #7D7C7B",
"9	c #7F7F7F",
"0	c #B8B8B8",
"                  ",
"                  ",
"                  ",
"                  ",
"    .+@@@@@@#$    ",
"    %&******=$    ",
"    +-;;;;;;>$    ",
"    ,'))))))!$    ",
"    ~{]]]]]]^$    ",
"    /(______:$    ",
"    <[}}}}}}|$    ",
"    123333334$    ",
"    567777778$    ",
"    9999999990    ",
"                  ",
"                  ",
"                  ",
"                  "};
