/* XPM */
const char * uparrow_18_xpm[] = {
"18 18 105 2",
"  	c None",
". 	c #2259B6",
"+ 	c #2052B1",
"@ 	c #2265C4",
"# 	c #3C90EA",
"$ 	c #3B8EE7",
"% 	c #1C56B9",
"& 	c #256AC8",
"* 	c #5CA2ED",
"= 	c #D0E8FE",
"- 	c #5A9CE9",
"; 	c #1C52B6",
"> 	c #246AC9",
", 	c #519CEC",
"' 	c #A9D5FE",
") 	c #C3E2FF",
"! 	c #A9D4FE",
"~ 	c #4D92E4",
"{ 	c #1749AF",
"] 	c #2166C6",
"^ 	c #4196EE",
"/ 	c #8AC5FE",
"( 	c #A0D0FF",
"_ 	c #89C5FE",
": 	c #3D8AE5",
"< 	c #1039A3",
"[ 	c #2063C3",
"} 	c #2E8DEF",
"| 	c #6EB9FE",
"1 	c #7BBFFF",
"2 	c #76BDFF",
"3 	c #6EB8FE",
"4 	c #2880E4",
"5 	c #092996",
"6 	c #1E67C9",
"7 	c #1D86F0",
"8 	c #4AA7FF",
"9 	c #4FA9FF",
"0 	c #4EA9FF",
"a 	c #4BA7FF",
"b 	c #46A5FF",
"c 	c #349CFE",
"d 	c #086FE3",
"e 	c #052697",
"f 	c #2065C6",
"g 	c #1279E9",
"h 	c #1D91FE",
"i 	c #2696FF",
"j 	c #2796FF",
"k 	c #2795FF",
"l 	c #2192FF",
"m 	c #148AFF",
"n 	c #0583FF",
"o 	c #0181FF",
"p 	c #027FFC",
"q 	c #0358D1",
"r 	c #03198B",
"s 	c #2364C2",
"t 	c #1B78E4",
"u 	c #1487FC",
"v 	c #158BFF",
"w 	c #128BFF",
"x 	c #0E8AFF",
"y 	c #118BFF",
"z 	c #148BFF",
"A 	c #168BFF",
"B 	c #1288FF",
"C 	c #1087FF",
"D 	c #1082FA",
"E 	c #0D55C9",
"F 	c #030D80",
"G 	c #2565C4",
"H 	c #2C90FA",
"I 	c #2C95FF",
"J 	c #2A94FF",
"K 	c #2894FF",
"L 	c #2B94FF",
"M 	c #298AF5",
"N 	c #071889",
"O 	c #245DBB",
"P 	c #357EDD",
"Q 	c #4499F5",
"R 	c #459BF7",
"S 	c #459AF6",
"T 	c #4498F5",
"U 	c #4497F4",
"V 	c #4396F3",
"W 	c #4395F2",
"X 	c #4191EF",
"Y 	c #275BC2",
"Z 	c #050D7E",
"` 	c #1D4CAC",
" .	c #1B46A8",
"..	c #1940A4",
"+.	c #163A9F",
"@.	c #13349A",
"#.	c #122E95",
"$.	c #102891",
"%.	c #0D238D",
"&.	c #0B1C87",
"*.	c #081683",
"=.	c #06107E",
"-.	c #040A7A",
";.	c #020475",
">.	c #000072",
"                                    ",
"                                    ",
"                                    ",
"                . +                 ",
"              @ # $ %               ",
"            & * = = - ;             ",
"          > , ' ) ) ! ~ {           ",
"        ] ^ / ( ( ( ( _ : <         ",
"      [ } | 1 1 2 2 1 1 3 4 5       ",
"    6 7 8 9 9 9 9 8 0 a b c d e     ",
"  f g h i j j j j k l m n o p q r   ",
"s t u v w x x y z A B C C C C D E F ",
"G H I I J K K J L I I I I I I I M N ",
"O P Q R S S Q T T U U V V W W X Y Z ",
"  `  ...+.@.#.$.%.&.*.=.-.;.>.>.>.  ",
"                                    ",
"                                    ",
"                                    "};
